{"glyphs":{"0":{"ha":914,"x_min":0,"x_max":0,"o":"m 457 972 b 42 479 243 972 42 754 b 457 -14 42 204 243 -14 b 872 479 671 -14 872 204 b 457 972 872 754 671 972 z m 457 49 b 307 479 369 49 307 228 b 457 910 307 731 369 910 b 607 479 544 910 607 731 b 457 49 607 228 544 49 z "},"1":{"ha":669,"x_min":0,"x_max":0,"o":"m 488 972 l 14 694 l 238 694 l 238 79 l 69 79 l 69 0 l 656 0 l 656 79 l 488 79 z "},"2":{"ha":735,"x_min":0,"x_max":0,"o":"m 613 0 l 726 208 l 244 208 l 244 228 b 644 707 446 368 644 526 b 376 972 644 853 542 972 b 15 664 217 972 79 867 b 250 778 89 743 156 778 b 429 589 358 778 429 704 b -28 0 429 425 290 313 z "},"3":{"ha":722,"x_min":0,"x_max":0,"o":"m 290 32 l 115 224 b 14 108 53 207 14 161 b 203 -14 14 39 89 -14 b 688 322 438 -14 688 136 b 389 569 688 467 565 556 l 389 588 b 626 792 522 618 626 678 b 406 972 626 885 549 972 b 46 715 219 972 101 846 b 236 803 97 765 146 803 b 372 688 315 803 372 763 b 135 425 372 592 297 506 b 468 225 343 425 468 353 b 290 32 468 118 378 54 z "},"4":{"ha":938,"x_min":0,"x_max":0,"o":"m 803 0 l 803 78 l 674 78 l 674 283 l 835 283 l 938 394 l 674 394 l 674 972 l 0 283 l 446 283 l 446 78 l 317 78 l 317 0 z m 446 394 l 194 394 l 446 649 z "},"5":{"ha":722,"x_min":0,"x_max":0,"o":"m 215 638 l 244 736 l 608 736 l 708 958 l 253 958 l 101 449 b 465 240 317 471 465 397 b 293 32 465 122 382 54 l 115 224 b 14 108 53 207 14 161 b 203 -14 14 39 89 -14 b 674 360 435 -14 674 140 b 215 638 674 579 457 654 z "},"6":{"ha":818,"x_min":0,"x_max":0,"o":"m 424 -14 b 776 324 617 -14 776 143 b 493 606 776 483 654 606 b 321 528 415 606 361 572 l 304 528 b 764 972 361 704 514 847 b 42 382 372 967 42 700 b 424 -14 42 158 206 -14 z m 278 356 b 294 492 278 403 283 449 b 354 503 311 499 332 503 b 571 235 476 503 571 381 b 450 47 571 122 526 47 b 278 356 349 47 278 175 z "},"7":{"ha":782,"x_min":0,"x_max":0,"o":"m 314 0 l 782 958 l 100 958 l 0 736 l 593 736 l 165 0 z "},"8":{"ha":790,"x_min":0,"x_max":0,"o":"m 756 276 b 533 546 756 407 649 483 l 533 571 b 711 747 642 599 711 663 b 399 972 711 875 576 972 b 68 692 204 972 68 831 b 238 458 68 583 146 514 l 238 435 b 35 219 111 382 35 317 b 389 -14 35 93 189 -14 b 756 276 589 -14 756 136 z m 260 778 b 400 911 260 854 315 911 b 554 750 497 911 554 849 b 482 574 554 679 536 622 b 260 778 367 635 260 689 z m 206 243 b 288 429 206 318 231 379 b 544 196 413 360 544 303 b 383 49 544 121 488 49 b 206 243 276 49 206 126 z "},"9":{"ha":818,"x_min":0,"x_max":0,"o":"m 394 972 b 42 635 201 972 42 815 b 325 353 42 475 164 353 b 497 431 403 353 457 386 l 514 431 b 54 -14 457 254 304 111 b 776 576 446 -8 776 258 b 394 972 776 800 613 972 z m 540 603 b 524 467 540 556 535 510 b 464 456 507 460 486 456 b 247 724 342 456 247 578 b 368 911 247 836 292 911 b 540 603 469 911 540 783 z "}," ":{"ha":278,"x_min":0,"x_max":0,"o":""}," ":{"ha":278,"x_min":0,"x_max":0,"o":""},"A":{"ha":1092,"x_min":0,"x_max":0,"o":"m 351 958 l 413 814 l 101 78 l 0 78 l 0 0 l 361 0 l 361 78 l 190 78 l 296 332 l 615 332 l 722 78 l 551 78 l 551 0 l 1092 0 l 1092 78 l 990 78 l 624 958 z m 328 410 l 454 714 l 582 410 z "},"B":{"ha":993,"x_min":0,"x_max":0,"o":"m 33 958 l 33 881 l 163 881 l 163 78 l 33 78 l 33 0 l 524 0 b 954 278 796 0 954 119 b 638 517 954 442 769 508 b 894 728 769 538 894 604 b 508 958 894 883 749 958 z m 461 881 b 649 710 558 881 649 833 b 461 533 649 592 550 533 l 413 533 l 413 881 z m 413 78 l 413 465 l 468 465 b 686 272 583 465 686 415 b 476 78 686 149 583 78 z "},"C":{"ha":976,"x_min":0,"x_max":0,"o":"m 56 456 b 532 -14 56 161 303 -14 b 943 269 740 -14 882 106 b 658 164 854 192 761 164 b 308 553 481 164 308 301 b 575 890 308 758 431 890 b 919 592 718 890 817 738 l 919 972 l 792 910 b 564 972 732 944 663 972 b 56 456 310 972 56 765 z "},"D":{"ha":1119,"x_min":0,"x_max":0,"o":"m 456 958 l 33 958 l 33 881 l 163 881 l 163 78 l 33 78 l 33 0 l 469 0 b 1078 506 810 0 1078 200 b 456 958 1078 792 815 958 z m 429 881 b 814 504 668 881 814 754 b 432 78 814 239 669 78 l 413 78 l 413 881 z "},"E":{"ha":961,"x_min":0,"x_max":0,"o":"m 539 538 l 413 538 l 413 881 l 642 881 l 853 632 l 853 999 l 778 958 l 33 958 l 33 881 l 163 881 l 163 78 l 33 78 l 33 0 l 864 0 l 922 390 l 643 78 l 413 78 l 413 460 l 539 460 l 676 296 l 676 700 z "},"F":{"ha":917,"x_min":0,"x_max":0,"o":"m 539 521 l 413 521 l 413 881 l 642 881 l 853 632 l 853 999 l 778 958 l 33 958 l 33 881 l 163 881 l 163 78 l 33 78 l 33 0 l 575 0 l 575 78 l 413 78 l 413 443 l 539 443 l 676 279 l 676 683 z "},"G":{"ha":1060,"x_min":0,"x_max":0,"o":"m 678 360 l 678 78 b 635 72 663 74 653 72 b 315 508 471 72 315 246 b 581 890 315 754 431 890 b 919 592 718 890 817 735 l 919 972 l 792 910 b 564 972 732 944 663 972 b 47 464 310 972 47 774 b 578 -14 47 156 313 -14 b 1004 144 739 -14 915 51 l 924 144 l 924 360 l 1018 360 l 1018 438 l 574 438 l 574 360 z "},"H":{"ha":1214,"x_min":0,"x_max":0,"o":"m 33 958 l 33 881 l 163 881 l 163 78 l 33 78 l 33 0 l 542 0 l 542 78 l 413 78 l 413 460 l 801 460 l 801 78 l 672 78 l 672 0 l 1181 0 l 1181 78 l 1051 78 l 1051 881 l 1181 881 l 1181 958 l 672 958 l 672 881 l 801 881 l 801 538 l 413 538 l 413 881 l 542 881 l 542 958 z "},"I":{"ha":575,"x_min":0,"x_max":0,"o":"m 33 958 l 33 881 l 163 881 l 163 78 l 33 78 l 33 0 l 542 0 l 542 78 l 413 78 l 413 881 l 542 881 l 542 958 z "},"J":{"ha":556,"x_min":0,"x_max":0,"o":"m 153 40 b 83 -286 153 -140 121 -232 l -94 -119 b -196 -251 -146 -142 -196 -187 b -60 -375 -196 -324 -137 -375 b 403 8 128 -375 343 -175 l 403 881 l 532 881 l 532 958 l 24 958 l 24 881 l 153 881 z "},"K":{"ha":1106,"x_min":0,"x_max":0,"o":"m 33 958 l 33 881 l 163 881 l 163 78 l 33 78 l 33 0 l 542 0 l 542 78 l 413 78 l 413 522 l 785 0 l 1101 0 l 653 596 l 951 881 l 1079 881 l 1079 958 l 697 958 l 697 881 l 844 881 l 481 536 l 413 536 l 413 881 l 542 881 l 542 958 z "},"L":{"ha":921,"x_min":0,"x_max":0,"o":"m 163 881 l 163 78 l 33 78 l 33 0 l 836 0 l 894 390 l 615 78 l 413 78 l 413 881 l 542 881 l 542 958 l 33 958 l 33 881 z "},"M":{"ha":1374,"x_min":0,"x_max":0,"o":"m 1001 78 l 844 78 l 844 0 l 1367 0 l 1367 78 l 1251 78 l 1181 881 l 1307 881 l 1307 958 l 892 958 l 700 431 l 507 958 l 67 958 l 67 881 l 193 881 l 122 78 l 7 78 l 7 0 l 371 0 l 371 78 l 214 78 l 279 839 l 610 -42 l 932 839 z "},"N":{"ha":1108,"x_min":0,"x_max":0,"o":"m 414 0 l 414 78 l 257 78 l 257 696 l 954 -42 l 954 881 l 1083 881 l 1083 958 l 703 958 l 703 881 l 860 881 l 860 413 l 346 958 l 8 958 l 163 796 l 163 78 l 33 78 l 33 0 z "},"O":{"ha":1097,"x_min":0,"x_max":0,"o":"m 1056 479 b 549 972 1056 764 811 972 b 42 479 286 972 42 764 b 549 -14 42 194 286 -14 b 1056 479 811 -14 1056 194 z m 308 479 b 549 901 308 731 426 901 b 789 479 671 901 789 731 b 549 56 789 228 671 56 b 308 479 426 56 308 228 z "},"P":{"ha":932,"x_min":0,"x_max":0,"o":"m 33 881 l 163 881 l 163 78 l 33 78 l 33 0 l 594 0 l 594 78 l 413 78 l 413 881 l 435 881 b 664 685 561 881 664 819 b 457 468 664 561 581 482 l 579 411 b 917 685 728 415 917 504 b 496 958 917 874 736 958 l 33 958 z "},"Q":{"ha":1097,"x_min":0,"x_max":0,"o":"m 1056 479 b 549 972 1056 764 811 972 b 42 479 286 972 42 764 b 331 33 42 285 160 133 l 951 -331 l 1308 -185 l 628 -14 l 628 14 b 1056 479 861 57 1056 239 z m 308 479 b 549 901 308 731 426 901 b 789 479 671 901 789 731 b 549 56 789 228 671 56 b 308 479 426 56 308 228 z "},"R":{"ha":1078,"x_min":0,"x_max":0,"o":"m 542 78 l 413 78 l 413 426 l 456 426 l 775 0 l 1092 0 l 717 451 b 935 690 838 489 935 565 b 536 958 935 874 767 958 l 33 958 l 33 881 l 163 881 l 163 78 l 33 78 l 33 0 l 542 0 z m 413 881 l 476 881 b 679 690 579 881 679 831 b 476 504 679 550 579 504 l 413 504 z "},"S":{"ha":811,"x_min":0,"x_max":0,"o":"m 401 888 b 715 617 514 888 611 765 l 715 972 l 601 901 b 396 972 556 939 478 972 b 67 672 224 972 67 847 b 533 201 67 354 533 425 b 383 65 533 111 467 65 b 50 372 271 65 147 189 l 50 92 b 372 -14 114 33 240 -14 b 757 304 583 -14 757 121 b 275 771 757 626 275 569 b 401 888 275 844 324 888 z "},"T":{"ha":1031,"x_min":0,"x_max":0,"o":"m 238 881 l 390 881 l 390 78 l 228 78 l 228 0 l 803 0 l 803 78 l 640 78 l 640 881 l 793 881 l 1004 632 l 1004 999 l 929 958 l 101 958 l 26 999 l 26 632 z "},"U":{"ha":1108,"x_min":0,"x_max":0,"o":"m 865 388 b 631 129 865 238 776 129 b 399 390 471 129 399 239 l 399 881 l 528 881 l 528 958 l 19 958 l 19 881 l 149 881 l 149 363 b 556 -14 149 110 365 -14 b 960 367 767 -14 960 135 l 960 881 l 1089 881 l 1089 958 l 708 958 l 708 881 l 865 881 z "},"V":{"ha":1047,"x_min":0,"x_max":0,"o":"m 368 881 l 511 881 l 511 958 l 0 958 l 0 881 l 101 881 l 524 -42 l 946 881 l 1047 881 l 1047 958 l 697 958 l 697 881 l 854 881 l 608 326 z "},"W":{"ha":1460,"x_min":0,"x_max":0,"o":"m 354 881 l 449 881 l 449 958 l 0 958 l 0 881 l 101 881 l 496 -42 l 742 549 l 978 -42 l 1358 881 l 1460 881 l 1460 958 l 1113 958 l 1113 881 l 1269 881 l 1056 350 l 851 881 l 994 881 l 994 958 l 528 958 l 528 881 l 608 881 l 701 649 l 578 346 z "},"X":{"ha":1151,"x_min":0,"x_max":0,"o":"m 53 958 l 53 881 l 163 881 l 447 476 l 143 78 l 14 78 l 14 0 l 385 0 l 385 78 l 249 78 l 497 406 l 728 78 l 599 78 l 599 0 l 1138 0 l 1138 78 l 1022 78 l 674 574 l 917 881 l 1054 881 l 1054 958 l 669 958 l 669 881 l 811 881 l 626 640 l 457 881 l 578 881 l 578 958 z "},"Y":{"ha":1067,"x_min":0,"x_max":0,"o":"m 822 0 l 822 78 l 660 78 l 660 463 l 965 881 l 1067 881 l 1067 958 l 713 958 l 713 881 l 864 881 l 625 554 l 396 881 l 547 881 l 547 958 l 0 958 l 0 881 l 101 881 l 410 463 l 410 78 l 247 78 l 247 0 z "},"Z":{"ha":954,"x_min":0,"x_max":0,"o":"m 647 78 l 354 78 l 915 958 l 149 958 l 74 999 l 74 632 l 285 881 l 583 881 l 18 0 l 868 0 l 926 390 z "},"Á":{"ha":1092,"x_min":0,"x_max":0,"o":"m 351 958 l 413 814 l 101 78 l 0 78 l 0 0 l 361 0 l 361 78 l 190 78 l 296 332 l 615 332 l 722 78 l 551 78 l 551 0 l 1092 0 l 1092 78 l 990 78 l 624 958 z m 328 410 l 454 714 l 582 410 z m 875 1111 l 647 1299 l 389 1013 z "},"Ă":{"ha":1092,"x_min":0,"x_max":0,"o":"m 351 958 l 413 814 l 101 78 l 0 78 l 0 0 l 361 0 l 361 78 l 190 78 l 296 332 l 615 332 l 722 78 l 551 78 l 551 0 l 1092 0 l 1092 78 l 990 78 l 624 958 z m 328 410 l 454 714 l 582 410 z m 499 1007 b 736 1292 638 1007 736 1117 b 499 1161 681 1201 596 1161 b 261 1292 401 1161 317 1201 b 499 1007 261 1117 360 1007 z "},"Â":{"ha":1092,"x_min":0,"x_max":0,"o":"m 351 958 l 413 814 l 101 78 l 0 78 l 0 0 l 361 0 l 361 78 l 190 78 l 296 332 l 615 332 l 722 78 l 551 78 l 551 0 l 1092 0 l 1092 78 l 990 78 l 624 958 z m 328 410 l 454 714 l 582 410 z m 394 1281 l 225 999 l 497 1139 l 769 999 l 600 1281 z "},"Ä":{"ha":1092,"x_min":0,"x_max":0,"o":"m 351 958 l 413 814 l 101 78 l 0 78 l 0 0 l 361 0 l 361 78 l 190 78 l 296 332 l 615 332 l 722 78 l 551 78 l 551 0 l 1092 0 l 1092 78 l 990 78 l 624 958 z m 328 410 l 454 714 l 582 410 z m 640 1013 b 754 1125 706 1013 754 1061 b 640 1238 754 1189 706 1238 b 526 1125 575 1238 526 1189 b 640 1013 526 1061 575 1013 z m 354 1013 b 468 1125 419 1013 468 1061 b 354 1238 468 1189 419 1238 b 240 1125 289 1238 240 1189 b 354 1013 240 1061 289 1013 z "},"À":{"ha":1092,"x_min":0,"x_max":0,"o":"m 351 958 l 413 814 l 101 78 l 0 78 l 0 0 l 361 0 l 361 78 l 190 78 l 296 332 l 615 332 l 722 78 l 551 78 l 551 0 l 1092 0 l 1092 78 l 990 78 l 624 958 z m 328 410 l 454 714 l 582 410 z m 143 1111 l 629 1013 l 371 1299 z "},"Ā":{"ha":1092,"x_min":0,"x_max":0,"o":"m 351 958 l 413 814 l 101 78 l 0 78 l 0 0 l 361 0 l 361 78 l 190 78 l 296 332 l 615 332 l 722 78 l 551 78 l 551 0 l 1092 0 l 1092 78 l 990 78 l 624 958 z m 328 410 l 454 714 l 582 410 z m 324 1164 l 250 1053 l 704 1053 l 778 1164 z "},"Ą":{"ha":1092,"x_min":0,"x_max":0,"o":"m 351 958 l 413 814 l 101 78 l 0 78 l 0 0 l 361 0 l 361 78 l 190 78 l 296 332 l 615 332 l 722 78 l 551 78 l 551 4 b 350 -261 444 -71 350 -175 b 463 -375 350 -336 401 -375 b 644 -261 536 -375 600 -324 l 589 -261 b 499 -181 533 -261 499 -232 b 592 0 499 -125 529 -60 l 1092 0 l 1092 78 l 990 78 l 624 958 z m 328 410 l 454 714 l 582 410 z "},"Å":{"ha":1092,"x_min":0,"x_max":0,"o":"m 351 958 l 413 814 l 101 78 l 0 78 l 0 0 l 361 0 l 361 78 l 190 78 l 296 332 l 615 332 l 722 78 l 551 78 l 551 0 l 1092 0 l 1092 78 l 990 78 l 624 958 z m 328 410 l 454 714 l 582 410 z m 500 1317 b 342 1157 414 1317 342 1244 b 500 999 342 1071 414 999 b 658 1157 586 999 658 1071 b 500 1317 658 1244 586 1317 z m 500 1246 b 588 1157 549 1246 588 1207 b 500 1069 588 1108 549 1069 b 413 1157 451 1069 413 1108 b 500 1246 413 1207 451 1246 z "},"Ã":{"ha":1092,"x_min":0,"x_max":0,"o":"m 351 958 l 413 814 l 101 78 l 0 78 l 0 0 l 361 0 l 361 78 l 190 78 l 296 332 l 615 332 l 722 78 l 551 78 l 551 0 l 1092 0 l 1092 78 l 990 78 l 624 958 z m 328 410 l 454 714 l 582 410 z m 671 1024 l 801 1275 b 625 1192 722 1224 669 1192 l 363 1247 l 232 996 b 408 1079 311 1047 364 1079 z "},"Æ":{"ha":1468,"x_min":0,"x_max":0,"o":"m 1046 538 l 919 538 l 919 881 l 1149 881 l 1360 632 l 1360 999 l 1285 958 l 429 958 l 429 881 l 588 881 l 101 78 l 0 78 l 0 0 l 368 0 l 368 78 l 197 78 l 365 360 l 669 360 l 669 78 l 540 78 l 540 0 l 1371 0 l 1429 390 l 1150 78 l 919 78 l 919 460 l 1046 460 l 1183 296 l 1183 700 z m 411 438 l 669 871 l 669 438 z "},"Ǽ":{"ha":1468,"x_min":0,"x_max":0,"o":"m 1046 538 l 919 538 l 919 881 l 1149 881 l 1360 632 l 1360 999 l 1285 958 l 429 958 l 429 881 l 588 881 l 101 78 l 0 78 l 0 0 l 368 0 l 368 78 l 197 78 l 365 360 l 669 360 l 669 78 l 540 78 l 540 0 l 1371 0 l 1429 390 l 1150 78 l 919 78 l 919 460 l 1046 460 l 1183 296 l 1183 700 z m 411 438 l 669 871 l 669 438 z m 1261 1111 l 1033 1299 l 775 1013 z "},"Ć":{"ha":976,"x_min":0,"x_max":0,"o":"m 56 456 b 532 -14 56 161 303 -14 b 943 269 740 -14 882 106 b 658 164 854 192 761 164 b 308 553 481 164 308 301 b 575 890 308 758 431 890 b 919 592 718 890 817 738 l 919 972 l 792 910 b 564 972 732 944 663 972 b 56 456 310 972 56 765 z m 907 1111 l 679 1299 l 421 1013 z "},"Č":{"ha":976,"x_min":0,"x_max":0,"o":"m 56 456 b 532 -14 56 161 303 -14 b 943 269 740 -14 882 106 b 658 164 854 192 761 164 b 308 553 481 164 308 301 b 575 890 308 758 431 890 b 919 592 718 890 817 738 l 919 972 l 792 910 b 564 972 732 944 663 972 b 56 456 310 972 56 765 z m 451 1013 l 657 1013 l 826 1294 l 554 1154 l 282 1294 z "},"Ç":{"ha":976,"x_min":0,"x_max":0,"o":"m 56 456 b 508 -14 56 171 286 -1 l 417 -154 b 550 -256 479 -169 550 -200 b 494 -332 550 -292 526 -322 l 421 -225 b 344 -296 381 -225 344 -254 b 443 -371 344 -336 385 -371 b 672 -200 544 -371 672 -292 b 528 -61 672 -128 607 -85 l 531 -14 l 532 -14 b 943 269 740 -14 882 106 b 658 164 854 192 761 164 b 308 553 481 164 308 301 b 575 890 308 758 431 890 b 919 592 718 890 817 738 l 919 972 l 792 910 b 564 972 732 944 663 972 b 56 456 310 972 56 765 z "},"Ĉ":{"ha":976,"x_min":0,"x_max":0,"o":"m 56 456 b 532 -14 56 161 303 -14 b 943 269 740 -14 882 106 b 658 164 854 192 761 164 b 308 553 481 164 308 301 b 575 890 308 758 431 890 b 919 592 718 890 817 738 l 919 972 l 792 910 b 564 972 732 944 663 972 b 56 456 310 972 56 765 z m 446 1281 l 276 999 l 549 1139 l 821 999 l 651 1281 z "},"Ċ":{"ha":976,"x_min":0,"x_max":0,"o":"m 56 456 b 532 -14 56 161 303 -14 b 943 269 740 -14 882 106 b 658 164 854 192 761 164 b 308 553 481 164 308 301 b 575 890 308 758 431 890 b 919 592 718 890 817 738 l 919 972 l 792 910 b 564 972 732 944 663 972 b 56 456 310 972 56 765 z m 563 1008 b 696 1143 636 1008 696 1069 b 563 1278 696 1217 636 1278 b 429 1143 489 1278 429 1217 b 563 1008 429 1069 489 1008 z "},"Ď":{"ha":1119,"x_min":0,"x_max":0,"o":"m 456 958 l 33 958 l 33 881 l 163 881 l 163 78 l 33 78 l 33 0 l 469 0 b 1078 506 810 0 1078 200 b 456 958 1078 792 815 958 z m 429 881 b 814 504 668 881 814 754 b 432 78 814 239 669 78 l 413 78 l 413 881 z m 397 1013 l 603 1013 l 772 1294 l 500 1154 l 228 1294 z "},"Đ":{"ha":1119,"x_min":0,"x_max":0,"o":"m 24 460 l 163 460 l 163 78 l 33 78 l 33 0 l 469 0 b 1078 506 810 0 1078 200 b 456 958 1078 792 815 958 l 33 958 l 33 881 l 163 881 l 163 538 l 51 538 z m 429 881 b 814 504 668 881 814 754 b 432 78 814 239 669 78 l 413 78 l 413 460 l 563 460 l 590 538 l 413 538 l 413 881 z "},"É":{"ha":961,"x_min":0,"x_max":0,"o":"m 539 538 l 413 538 l 413 881 l 642 881 l 853 632 l 853 999 l 778 958 l 33 958 l 33 881 l 163 881 l 163 78 l 33 78 l 33 0 l 864 0 l 922 390 l 643 78 l 413 78 l 413 460 l 539 460 l 676 296 l 676 700 z m 786 1111 l 558 1299 l 300 1013 z "},"Ĕ":{"ha":961,"x_min":0,"x_max":0,"o":"m 539 538 l 413 538 l 413 881 l 642 881 l 853 632 l 853 999 l 778 958 l 33 958 l 33 881 l 163 881 l 163 78 l 33 78 l 33 0 l 864 0 l 922 390 l 643 78 l 413 78 l 413 460 l 539 460 l 676 296 l 676 700 z m 485 1007 b 722 1292 624 1007 722 1117 b 485 1161 667 1201 582 1161 b 247 1292 388 1161 303 1201 b 485 1007 247 1117 346 1007 z "},"Ě":{"ha":961,"x_min":0,"x_max":0,"o":"m 539 538 l 413 538 l 413 881 l 642 881 l 853 632 l 853 999 l 778 958 l 33 958 l 33 881 l 163 881 l 163 78 l 33 78 l 33 0 l 864 0 l 922 390 l 643 78 l 413 78 l 413 460 l 539 460 l 676 296 l 676 700 z m 378 1013 l 583 1013 l 753 1294 l 481 1154 l 208 1294 z "},"Ê":{"ha":961,"x_min":0,"x_max":0,"o":"m 539 538 l 413 538 l 413 881 l 642 881 l 853 632 l 853 999 l 778 958 l 33 958 l 33 881 l 163 881 l 163 78 l 33 78 l 33 0 l 864 0 l 922 390 l 643 78 l 413 78 l 413 460 l 539 460 l 676 296 l 676 700 z m 367 1281 l 197 999 l 469 1139 l 742 999 l 572 1281 z "},"Ë":{"ha":961,"x_min":0,"x_max":0,"o":"m 539 538 l 413 538 l 413 881 l 642 881 l 853 632 l 853 999 l 778 958 l 33 958 l 33 881 l 163 881 l 163 78 l 33 78 l 33 0 l 864 0 l 922 390 l 643 78 l 413 78 l 413 460 l 539 460 l 676 296 l 676 700 z m 617 1013 b 731 1125 682 1013 731 1061 b 617 1238 731 1189 682 1238 b 503 1125 551 1238 503 1189 b 617 1013 503 1061 551 1013 z m 331 1013 b 444 1125 396 1013 444 1061 b 331 1238 444 1189 396 1238 b 217 1125 265 1238 217 1189 b 331 1013 217 1061 265 1013 z "},"Ė":{"ha":961,"x_min":0,"x_max":0,"o":"m 539 538 l 413 538 l 413 881 l 642 881 l 853 632 l 853 999 l 778 958 l 33 958 l 33 881 l 163 881 l 163 78 l 33 78 l 33 0 l 864 0 l 922 390 l 643 78 l 413 78 l 413 460 l 539 460 l 676 296 l 676 700 z m 478 1008 b 611 1143 551 1008 611 1069 b 478 1278 611 1217 551 1278 b 344 1143 404 1278 344 1217 b 478 1008 344 1069 404 1008 z "},"È":{"ha":961,"x_min":0,"x_max":0,"o":"m 539 538 l 413 538 l 413 881 l 642 881 l 853 632 l 853 999 l 778 958 l 33 958 l 33 881 l 163 881 l 163 78 l 33 78 l 33 0 l 864 0 l 922 390 l 643 78 l 413 78 l 413 460 l 539 460 l 676 296 l 676 700 z m 193 1111 l 679 1013 l 421 1299 z "},"Ē":{"ha":961,"x_min":0,"x_max":0,"o":"m 539 538 l 413 538 l 413 881 l 642 881 l 853 632 l 853 999 l 778 958 l 33 958 l 33 881 l 163 881 l 163 78 l 33 78 l 33 0 l 864 0 l 922 390 l 643 78 l 413 78 l 413 460 l 539 460 l 676 296 l 676 700 z m 304 1164 l 231 1053 l 685 1053 l 758 1164 z "},"Ę":{"ha":961,"x_min":0,"x_max":0,"o":"m 539 538 l 413 538 l 413 881 l 642 881 l 853 632 l 853 999 l 778 958 l 33 958 l 33 881 l 163 881 l 163 78 l 33 78 l 33 0 l 590 0 b 394 -261 486 -75 394 -176 b 507 -375 394 -336 446 -375 b 689 -261 581 -375 644 -324 l 633 -261 b 543 -181 578 -261 543 -232 b 636 0 543 -125 574 -60 l 864 0 l 922 390 l 643 78 l 413 78 l 413 460 l 539 460 l 676 296 l 676 700 z "},"Ð":{"ha":1119,"x_min":0,"x_max":0,"o":"m 24 460 l 163 460 l 163 78 l 33 78 l 33 0 l 469 0 b 1078 506 810 0 1078 200 b 456 958 1078 792 815 958 l 33 958 l 33 881 l 163 881 l 163 538 l 51 538 z m 429 881 b 814 504 668 881 814 754 b 432 78 814 239 669 78 l 413 78 l 413 460 l 563 460 l 590 538 l 413 538 l 413 881 z "},"Ğ":{"ha":1060,"x_min":0,"x_max":0,"o":"m 678 360 l 678 78 b 635 72 663 74 653 72 b 315 508 471 72 315 246 b 581 890 315 754 431 890 b 919 592 718 890 817 735 l 919 972 l 792 910 b 564 972 732 944 663 972 b 47 464 310 972 47 774 b 578 -14 47 156 313 -14 b 1004 144 739 -14 915 51 l 924 144 l 924 360 l 1018 360 l 1018 438 l 574 438 l 574 360 z m 560 1007 b 797 1292 699 1007 797 1117 b 560 1161 742 1201 657 1161 b 322 1292 463 1161 378 1201 b 560 1007 322 1117 421 1007 z "},"Ĝ":{"ha":1060,"x_min":0,"x_max":0,"o":"m 678 360 l 678 78 b 635 72 663 74 653 72 b 315 508 471 72 315 246 b 581 890 315 754 431 890 b 919 592 718 890 817 735 l 919 972 l 792 910 b 564 972 732 944 663 972 b 47 464 310 972 47 774 b 578 -14 47 156 313 -14 b 1004 144 739 -14 915 51 l 924 144 l 924 360 l 1018 360 l 1018 438 l 574 438 l 574 360 z m 457 1281 l 288 999 l 560 1139 l 832 999 l 663 1281 z "},"Ģ":{"ha":1060,"x_min":0,"x_max":0,"o":"m 678 360 l 678 78 b 635 72 663 74 653 72 b 315 508 471 72 315 246 b 581 890 315 754 431 890 b 919 592 718 890 817 735 l 919 972 l 792 910 b 564 972 732 944 663 972 b 47 464 310 972 47 774 b 578 -14 47 156 313 -14 b 1004 144 739 -14 915 51 l 924 144 l 924 360 l 1018 360 l 1018 438 l 574 438 l 574 360 z m 428 -165 b 468 -244 428 -199 444 -228 l 572 -244 b 418 -414 563 -308 517 -369 b 692 -206 586 -414 692 -311 b 554 -57 692 -122 640 -57 b 428 -165 481 -57 428 -108 z "},"Ġ":{"ha":1060,"x_min":0,"x_max":0,"o":"m 678 360 l 678 78 b 635 72 663 74 653 72 b 315 508 471 72 315 246 b 581 890 315 754 431 890 b 919 592 718 890 817 735 l 919 972 l 792 910 b 564 972 732 944 663 972 b 47 464 310 972 47 774 b 578 -14 47 156 313 -14 b 1004 144 739 -14 915 51 l 924 144 l 924 360 l 1018 360 l 1018 438 l 574 438 l 574 360 z m 560 1008 b 693 1143 633 1008 693 1069 b 560 1278 693 1217 633 1278 b 426 1143 486 1278 426 1217 b 560 1008 426 1069 486 1008 z "},"Ħ":{"ha":1214,"x_min":0,"x_max":0,"o":"m 24 613 l 163 613 l 163 78 l 33 78 l 33 0 l 542 0 l 542 78 l 413 78 l 413 390 l 801 390 l 801 78 l 672 78 l 672 0 l 1181 0 l 1181 78 l 1051 78 l 1051 613 l 1163 613 l 1190 690 l 1051 690 l 1051 881 l 1181 881 l 1181 958 l 672 958 l 672 881 l 801 881 l 801 690 l 413 690 l 413 881 l 542 881 l 542 958 l 33 958 l 33 881 l 163 881 l 163 690 l 51 690 z m 413 468 l 413 613 l 801 613 l 801 468 z "},"Ĥ":{"ha":1214,"x_min":0,"x_max":0,"o":"m 33 958 l 33 881 l 163 881 l 163 78 l 33 78 l 33 0 l 542 0 l 542 78 l 413 78 l 413 460 l 801 460 l 801 78 l 672 78 l 672 0 l 1181 0 l 1181 78 l 1051 78 l 1051 881 l 1181 881 l 1181 958 l 672 958 l 672 881 l 801 881 l 801 538 l 413 538 l 413 881 l 542 881 l 542 958 z m 504 1281 l 335 999 l 607 1139 l 879 999 l 710 1281 z "},"Í":{"ha":575,"x_min":0,"x_max":0,"o":"m 33 958 l 33 881 l 163 881 l 163 78 l 33 78 l 33 0 l 542 0 l 542 78 l 413 78 l 413 881 l 542 881 l 542 958 z m 579 1111 l 351 1299 l 93 1013 z "},"Ĭ":{"ha":575,"x_min":0,"x_max":0,"o":"m 33 958 l 33 881 l 163 881 l 163 78 l 33 78 l 33 0 l 542 0 l 542 78 l 413 78 l 413 881 l 542 881 l 542 958 z m 288 1007 b 525 1292 426 1007 525 1117 b 288 1161 469 1201 385 1161 b 50 1292 190 1161 106 1201 b 288 1007 50 1117 149 1007 z "},"Î":{"ha":575,"x_min":0,"x_max":0,"o":"m 33 958 l 33 881 l 163 881 l 163 78 l 33 78 l 33 0 l 542 0 l 542 78 l 413 78 l 413 881 l 542 881 l 542 958 z m 185 1281 l 15 999 l 288 1139 l 560 999 l 390 1281 z "},"Ï":{"ha":575,"x_min":0,"x_max":0,"o":"m 33 958 l 33 881 l 163 881 l 163 78 l 33 78 l 33 0 l 542 0 l 542 78 l 413 78 l 413 881 l 542 881 l 542 958 z m 431 1013 b 544 1125 496 1013 544 1061 b 431 1238 544 1189 496 1238 b 317 1125 365 1238 317 1189 b 431 1013 317 1061 365 1013 z m 144 1013 b 258 1125 210 1013 258 1061 b 144 1238 258 1189 210 1238 b 31 1125 79 1238 31 1189 b 144 1013 31 1061 79 1013 z "},"İ":{"ha":575,"x_min":0,"x_max":0,"o":"m 33 958 l 33 881 l 163 881 l 163 78 l 33 78 l 33 0 l 542 0 l 542 78 l 413 78 l 413 881 l 542 881 l 542 958 z m 288 1008 b 421 1143 361 1008 421 1069 b 288 1278 421 1217 361 1278 b 154 1143 214 1278 154 1217 b 288 1008 154 1069 214 1008 z "},"Ì":{"ha":575,"x_min":0,"x_max":0,"o":"m 33 958 l 33 881 l 163 881 l 163 78 l 33 78 l 33 0 l 542 0 l 542 78 l 413 78 l 413 881 l 542 881 l 542 958 z m 0 1111 l 486 1013 l 228 1299 z "},"Ī":{"ha":575,"x_min":0,"x_max":0,"o":"m 33 958 l 33 881 l 163 881 l 163 78 l 33 78 l 33 0 l 542 0 l 542 78 l 413 78 l 413 881 l 542 881 l 542 958 z m 97 1164 l 24 1053 l 478 1053 l 551 1164 z "},"Į":{"ha":575,"x_min":0,"x_max":0,"o":"m 33 958 l 33 881 l 163 881 l 163 78 l 33 78 l 33 0 l 290 0 b 94 -261 186 -75 94 -176 b 207 -375 94 -336 146 -375 b 389 -261 281 -375 344 -324 l 333 -261 b 243 -181 278 -261 243 -232 b 336 0 243 -125 274 -60 l 542 0 l 542 78 l 413 78 l 413 881 l 542 881 l 542 958 z "},"Ĩ":{"ha":575,"x_min":0,"x_max":0,"o":"m 33 958 l 33 881 l 163 881 l 163 78 l 33 78 l 33 0 l 542 0 l 542 78 l 413 78 l 413 881 l 542 881 l 542 958 z m 468 1024 l 599 1275 b 422 1192 519 1224 467 1192 l 160 1247 l 29 996 b 206 1079 108 1047 161 1079 z "},"Ĵ":{"ha":556,"x_min":0,"x_max":0,"o":"m 153 40 b 83 -286 153 -140 121 -232 l -94 -119 b -196 -251 -146 -142 -196 -187 b -60 -375 -196 -324 -137 -375 b 403 8 128 -375 343 -175 l 403 881 l 532 881 l 532 958 l 24 958 l 24 881 l 153 881 z m 174 1281 l 4 999 l 276 1139 l 549 999 l 379 1281 z "},"Ķ":{"ha":1106,"x_min":0,"x_max":0,"o":"m 33 958 l 33 881 l 163 881 l 163 78 l 33 78 l 33 0 l 542 0 l 542 78 l 413 78 l 413 522 l 785 0 l 1101 0 l 653 596 l 951 881 l 1079 881 l 1079 958 l 697 958 l 697 881 l 844 881 l 481 536 l 413 536 l 413 881 l 542 881 l 542 958 z m 408 -165 b 449 -244 408 -199 425 -228 l 553 -244 b 399 -414 543 -308 497 -369 b 672 -206 567 -414 672 -311 b 535 -57 672 -122 621 -57 b 408 -165 461 -57 408 -108 z "},"Ĺ":{"ha":921,"x_min":0,"x_max":0,"o":"m 163 881 l 163 78 l 33 78 l 33 0 l 836 0 l 894 390 l 615 78 l 413 78 l 413 881 l 542 881 l 542 958 l 33 958 l 33 881 z m 660 1111 l 432 1299 l 174 1013 z "},"Ľ":{"ha":921,"x_min":0,"x_max":0,"o":"m 163 881 l 163 78 l 33 78 l 33 0 l 836 0 l 894 390 l 615 78 l 413 78 l 413 881 l 542 881 l 542 958 l 33 958 l 33 881 z m 871 958 l 635 958 l 601 593 z "},"Ļ":{"ha":921,"x_min":0,"x_max":0,"o":"m 163 881 l 163 78 l 33 78 l 33 0 l 836 0 l 894 390 l 615 78 l 413 78 l 413 881 l 542 881 l 542 958 l 33 958 l 33 881 z m 361 -165 b 401 -244 361 -199 378 -228 l 506 -244 b 351 -414 496 -308 450 -369 b 625 -206 519 -414 625 -311 b 488 -57 625 -122 574 -57 b 361 -165 414 -57 361 -108 z "},"Ŀ":{"ha":921,"x_min":0,"x_max":0,"o":"m 163 881 l 163 78 l 33 78 l 33 0 l 836 0 l 894 390 l 615 78 l 413 78 l 413 881 l 542 881 l 542 958 l 33 958 l 33 881 z m 689 394 b 817 524 760 394 817 453 b 689 653 817 594 760 653 b 561 524 618 653 561 594 b 689 394 561 453 618 394 z "},"Ł":{"ha":921,"x_min":0,"x_max":0,"o":"m 65 265 l 163 322 l 163 78 l 33 78 l 33 0 l 836 0 l 894 390 l 615 78 l 413 78 l 413 458 l 610 575 l 610 657 l 413 540 l 413 881 l 542 881 l 542 958 l 33 958 l 33 881 l 163 881 l 163 404 l 65 347 z "},"Ń":{"ha":1108,"x_min":0,"x_max":0,"o":"m 414 0 l 414 78 l 257 78 l 257 696 l 954 -42 l 954 881 l 1083 881 l 1083 958 l 703 958 l 703 881 l 860 881 l 860 413 l 346 958 l 8 958 l 163 796 l 163 78 l 33 78 l 33 0 z m 864 1111 l 636 1299 l 378 1013 z "},"Ň":{"ha":1108,"x_min":0,"x_max":0,"o":"m 414 0 l 414 78 l 257 78 l 257 696 l 954 -42 l 954 881 l 1083 881 l 1083 958 l 703 958 l 703 881 l 860 881 l 860 413 l 346 958 l 8 958 l 163 796 l 163 78 l 33 78 l 33 0 z m 456 1013 l 661 1013 l 831 1294 l 558 1154 l 286 1294 z "},"Ņ":{"ha":1108,"x_min":0,"x_max":0,"o":"m 414 0 l 414 78 l 257 78 l 257 696 l 954 -42 l 954 881 l 1083 881 l 1083 958 l 703 958 l 703 881 l 860 881 l 860 413 l 346 958 l 8 958 l 163 796 l 163 78 l 33 78 l 33 0 z m 454 -165 b 494 -244 454 -199 471 -228 l 599 -244 b 444 -414 589 -308 543 -369 b 718 -206 613 -414 718 -311 b 581 -57 718 -122 667 -57 b 454 -165 507 -57 454 -108 z "},"Ñ":{"ha":1108,"x_min":0,"x_max":0,"o":"m 414 0 l 414 78 l 257 78 l 257 696 l 954 -42 l 954 881 l 1083 881 l 1083 958 l 703 958 l 703 881 l 860 881 l 860 413 l 346 958 l 8 958 l 163 796 l 163 78 l 33 78 l 33 0 z m 757 1024 l 888 1275 b 711 1192 808 1224 756 1192 l 449 1247 l 318 996 b 494 1079 397 1047 450 1079 z "},"Ŋ":{"ha":1108,"x_min":0,"x_max":0,"o":"m 414 0 l 414 78 l 257 78 l 257 694 l 860 57 l 860 -54 b 808 -318 860 -185 835 -274 l 640 -175 b 550 -296 594 -197 550 -239 b 671 -403 550 -360 600 -403 b 954 -169 808 -403 907 -308 l 954 881 l 1083 881 l 1083 958 l 703 958 l 703 881 l 860 881 l 860 410 l 346 958 l 8 958 l 163 794 l 163 78 l 33 78 l 33 0 z "},"Ó":{"ha":1097,"x_min":0,"x_max":0,"o":"m 1056 479 b 549 972 1056 764 811 972 b 42 479 286 972 42 764 b 549 -14 42 194 286 -14 b 1056 479 811 -14 1056 194 z m 308 479 b 549 901 308 731 426 901 b 789 479 671 901 789 731 b 549 56 789 228 671 56 b 308 479 426 56 308 228 z m 847 1111 l 619 1299 l 361 1013 z "},"Ŏ":{"ha":1097,"x_min":0,"x_max":0,"o":"m 1056 479 b 549 972 1056 764 811 972 b 42 479 286 972 42 764 b 549 -14 42 194 286 -14 b 1056 479 811 -14 1056 194 z m 308 479 b 549 901 308 731 426 901 b 789 479 671 901 789 731 b 549 56 789 228 671 56 b 308 479 426 56 308 228 z m 549 1007 b 786 1292 688 1007 786 1117 b 549 1161 731 1201 646 1161 b 311 1292 451 1161 367 1201 b 549 1007 311 1117 410 1007 z "},"Ô":{"ha":1097,"x_min":0,"x_max":0,"o":"m 1056 479 b 549 972 1056 764 811 972 b 42 479 286 972 42 764 b 549 -14 42 194 286 -14 b 1056 479 811 -14 1056 194 z m 308 479 b 549 901 308 731 426 901 b 789 479 671 901 789 731 b 549 56 789 228 671 56 b 308 479 426 56 308 228 z m 446 1281 l 276 999 l 549 1139 l 821 999 l 651 1281 z "},"Ö":{"ha":1097,"x_min":0,"x_max":0,"o":"m 1056 479 b 549 972 1056 764 811 972 b 42 479 286 972 42 764 b 549 -14 42 194 286 -14 b 1056 479 811 -14 1056 194 z m 308 479 b 549 901 308 731 426 901 b 789 479 671 901 789 731 b 549 56 789 228 671 56 b 308 479 426 56 308 228 z m 692 1013 b 806 1125 757 1013 806 1061 b 692 1238 806 1189 757 1238 b 578 1125 626 1238 578 1189 b 692 1013 578 1061 626 1013 z m 406 1013 b 519 1125 471 1013 519 1061 b 406 1238 519 1189 471 1238 b 292 1125 340 1238 292 1189 b 406 1013 292 1061 340 1013 z "},"Ò":{"ha":1097,"x_min":0,"x_max":0,"o":"m 1056 479 b 549 972 1056 764 811 972 b 42 479 286 972 42 764 b 549 -14 42 194 286 -14 b 1056 479 811 -14 1056 194 z m 308 479 b 549 901 308 731 426 901 b 789 479 671 901 789 731 b 549 56 789 228 671 56 b 308 479 426 56 308 228 z m 250 1111 l 736 1013 l 478 1299 z "},"Ő":{"ha":1097,"x_min":0,"x_max":0,"o":"m 1056 479 b 549 972 1056 764 811 972 b 42 479 286 972 42 764 b 549 -14 42 194 286 -14 b 1056 479 811 -14 1056 194 z m 308 479 b 549 901 308 731 426 901 b 789 479 671 901 789 731 b 549 56 789 228 671 56 b 308 479 426 56 308 228 z m 804 1299 l 633 1013 l 1031 1201 z m 479 1299 l 308 1013 l 706 1201 z "},"Ō":{"ha":1097,"x_min":0,"x_max":0,"o":"m 1056 479 b 549 972 1056 764 811 972 b 42 479 286 972 42 764 b 549 -14 42 194 286 -14 b 1056 479 811 -14 1056 194 z m 308 479 b 549 901 308 731 426 901 b 789 479 671 901 789 731 b 549 56 789 228 671 56 b 308 479 426 56 308 228 z m 358 1164 l 285 1053 l 739 1053 l 813 1164 z "},"Ø":{"ha":1097,"x_min":0,"x_max":0,"o":"m 1056 479 b 876 854 1056 633 983 765 l 974 986 l 879 986 l 814 897 b 549 972 735 946 643 972 b 42 479 286 972 42 764 b 226 100 42 322 117 188 l 125 -39 l 219 -39 l 290 57 b 549 -14 368 11 457 -14 b 1056 479 811 -14 1056 194 z m 308 479 b 549 901 308 731 426 901 b 722 772 613 901 676 854 l 343 258 b 308 479 321 321 308 396 z m 789 479 b 549 56 789 228 671 56 b 379 179 486 56 425 101 l 757 692 b 789 479 776 631 789 558 z "},"Ǿ":{"ha":1097,"x_min":0,"x_max":0,"o":"m 1056 479 b 876 854 1056 633 983 765 l 974 986 l 879 986 l 814 897 b 549 972 735 946 643 972 b 42 479 286 972 42 764 b 226 100 42 322 117 188 l 125 -39 l 219 -39 l 290 57 b 549 -14 368 11 457 -14 b 1056 479 811 -14 1056 194 z m 308 479 b 549 901 308 731 426 901 b 722 772 613 901 676 854 l 343 258 b 308 479 321 321 308 396 z m 789 479 b 549 56 789 228 671 56 b 379 179 486 56 425 101 l 757 692 b 789 479 776 631 789 558 z m 847 1111 l 619 1299 l 361 1013 z "},"Õ":{"ha":1097,"x_min":0,"x_max":0,"o":"m 1056 479 b 549 972 1056 764 811 972 b 42 479 286 972 42 764 b 549 -14 42 194 286 -14 b 1056 479 811 -14 1056 194 z m 308 479 b 549 901 308 731 426 901 b 789 479 671 901 789 731 b 549 56 789 228 671 56 b 308 479 426 56 308 228 z m 724 1024 l 854 1275 b 678 1192 775 1224 722 1192 l 415 1247 l 285 996 b 461 1079 364 1047 417 1079 z "},"Œ":{"ha":1506,"x_min":0,"x_max":0,"o":"m 664 0 l 1408 0 l 1467 390 l 1188 78 l 957 78 l 957 460 l 1083 460 l 1221 296 l 1221 700 l 1083 538 l 957 538 l 957 881 l 1186 881 l 1397 632 l 1397 999 l 1322 958 l 650 958 b 42 453 310 958 42 758 b 664 0 42 167 304 0 z m 690 78 b 306 454 451 78 306 204 b 688 881 306 719 450 881 l 707 881 l 707 78 z "},"Ŕ":{"ha":1078,"x_min":0,"x_max":0,"o":"m 542 78 l 413 78 l 413 426 l 456 426 l 775 0 l 1092 0 l 717 451 b 935 690 838 489 935 565 b 536 958 935 874 767 958 l 33 958 l 33 881 l 163 881 l 163 78 l 33 78 l 33 0 l 542 0 z m 413 881 l 476 881 b 679 690 579 881 679 831 b 476 504 679 550 579 504 l 413 504 z m 857 1111 l 629 1299 l 371 1013 z "},"Ř":{"ha":1078,"x_min":0,"x_max":0,"o":"m 542 78 l 413 78 l 413 426 l 456 426 l 775 0 l 1092 0 l 717 451 b 935 690 838 489 935 565 b 536 958 935 874 767 958 l 33 958 l 33 881 l 163 881 l 163 78 l 33 78 l 33 0 l 542 0 z m 413 881 l 476 881 b 679 690 579 881 679 831 b 476 504 679 550 579 504 l 413 504 z m 421 1013 l 626 1013 l 796 1294 l 524 1154 l 251 1294 z "},"Ŗ":{"ha":1078,"x_min":0,"x_max":0,"o":"m 542 78 l 413 78 l 413 426 l 456 426 l 775 0 l 1092 0 l 717 451 b 935 690 838 489 935 565 b 536 958 935 874 767 958 l 33 958 l 33 881 l 163 881 l 163 78 l 33 78 l 33 0 l 542 0 z m 413 881 l 476 881 b 679 690 579 881 679 831 b 476 504 679 550 579 504 l 413 504 z m 419 -165 b 460 -244 419 -199 436 -228 l 564 -244 b 410 -414 554 -308 508 -369 b 683 -206 578 -414 683 -311 b 546 -57 683 -122 632 -57 b 419 -165 472 -57 419 -108 z "},"Ś":{"ha":811,"x_min":0,"x_max":0,"o":"m 401 888 b 715 617 514 888 611 765 l 715 972 l 601 901 b 396 972 556 939 478 972 b 67 672 224 972 67 847 b 533 201 67 354 533 425 b 383 65 533 111 467 65 b 50 372 271 65 147 189 l 50 92 b 372 -14 114 33 240 -14 b 757 304 583 -14 757 121 b 275 771 757 626 275 569 b 401 888 275 844 324 888 z m 735 1111 l 507 1299 l 249 1013 z "},"Š":{"ha":811,"x_min":0,"x_max":0,"o":"m 401 888 b 715 617 514 888 611 765 l 715 972 l 601 901 b 396 972 556 939 478 972 b 67 672 224 972 67 847 b 533 201 67 354 533 425 b 383 65 533 111 467 65 b 50 372 271 65 147 189 l 50 92 b 372 -14 114 33 240 -14 b 757 304 583 -14 757 121 b 275 771 757 626 275 569 b 401 888 275 844 324 888 z m 299 1013 l 504 1013 l 674 1294 l 401 1154 l 129 1294 z "},"Ş":{"ha":811,"x_min":0,"x_max":0,"o":"m 288 -371 b 517 -200 389 -371 517 -292 b 372 -61 517 -128 451 -85 l 375 -14 b 757 304 583 -14 757 121 b 275 771 757 626 275 569 b 401 888 275 844 324 888 b 715 617 514 888 611 765 l 715 972 l 601 901 b 396 972 556 939 478 972 b 67 672 224 972 67 847 b 533 201 67 354 533 425 b 383 65 533 111 467 65 b 50 372 271 65 147 189 l 50 92 b 353 -14 111 36 228 -10 l 261 -154 b 394 -256 324 -169 394 -200 b 339 -332 394 -292 371 -322 l 265 -225 b 189 -296 225 -225 189 -254 b 288 -371 189 -336 229 -371 z "},"Ŝ":{"ha":811,"x_min":0,"x_max":0,"o":"m 401 888 b 715 617 514 888 611 765 l 715 972 l 601 901 b 396 972 556 939 478 972 b 67 672 224 972 67 847 b 533 201 67 354 533 425 b 383 65 533 111 467 65 b 50 372 271 65 147 189 l 50 92 b 372 -14 114 33 240 -14 b 757 304 583 -14 757 121 b 275 771 757 626 275 569 b 401 888 275 844 324 888 z m 288 1281 l 118 999 l 390 1139 l 663 999 l 493 1281 z "},"Ș":{"ha":811,"x_min":0,"x_max":0,"o":"m 401 888 b 715 617 514 888 611 765 l 715 972 l 601 901 b 396 972 556 939 478 972 b 67 672 224 972 67 847 b 533 201 67 354 533 425 b 383 65 533 111 467 65 b 50 372 271 65 147 189 l 50 92 b 372 -14 114 33 240 -14 b 757 304 583 -14 757 121 b 275 771 757 626 275 569 b 401 888 275 844 324 888 z m 253 -165 b 293 -244 253 -199 269 -228 l 397 -244 b 243 -414 388 -308 342 -369 b 517 -206 411 -414 517 -311 b 379 -57 517 -122 465 -57 b 253 -165 306 -57 253 -108 z "},"ẞ":{"ha":1144,"x_min":0,"x_max":0,"o":"m 768 64 b 493 365 653 64 565 174 l 493 78 b 761 -14 556 24 656 -14 b 1113 319 942 -14 1113 139 b 807 642 1113 508 961 604 l 1060 947 l 911 903 b 593 972 828 940 721 972 b 135 585 328 972 135 818 l 135 78 l 19 78 l 19 0 l 385 0 l 385 611 b 569 900 385 758 425 900 b 782 714 669 900 760 813 l 600 475 b 914 214 789 429 914 353 b 768 64 914 126 846 64 z "},"Ŧ":{"ha":1031,"x_min":0,"x_max":0,"o":"m 218 460 l 390 460 l 390 78 l 228 78 l 228 0 l 803 0 l 803 78 l 640 78 l 640 460 l 785 460 l 813 538 l 640 538 l 640 881 l 793 881 l 1004 632 l 1004 999 l 929 958 l 101 958 l 26 999 l 26 632 l 238 881 l 390 881 l 390 538 l 246 538 z "},"Ť":{"ha":1031,"x_min":0,"x_max":0,"o":"m 238 881 l 390 881 l 390 78 l 228 78 l 228 0 l 803 0 l 803 78 l 640 78 l 640 881 l 793 881 l 1004 632 l 1004 999 l 929 958 l 101 958 l 26 999 l 26 632 z m 413 1013 l 243 1294 l 515 1154 l 788 1294 l 618 1013 z "},"Ţ":{"ha":1031,"x_min":0,"x_max":0,"o":"m 429 -371 b 658 -200 531 -371 658 -292 b 514 -61 658 -128 593 -85 l 518 0 l 803 0 l 803 78 l 640 78 l 640 881 l 793 881 l 1004 632 l 1004 999 l 929 958 l 101 958 l 26 999 l 26 632 l 238 881 l 390 881 l 390 78 l 228 78 l 228 0 l 503 0 l 403 -154 b 536 -256 465 -169 536 -200 b 481 -332 536 -292 513 -322 l 407 -225 b 331 -296 367 -225 331 -254 b 429 -371 331 -336 371 -371 z "},"Ț":{"ha":1031,"x_min":0,"x_max":0,"o":"m 238 881 l 383 881 l 383 78 l 221 78 l 221 0 l 810 0 l 810 78 l 647 78 l 647 881 l 793 881 l 1004 632 l 1004 999 l 929 958 l 101 958 l 26 999 l 26 632 z m 389 -165 b 429 -244 389 -199 406 -228 l 533 -244 b 379 -414 524 -308 478 -369 b 653 -206 547 -414 653 -311 b 515 -57 653 -122 601 -57 b 389 -165 442 -57 389 -108 z "},"Þ":{"ha":932,"x_min":0,"x_max":0,"o":"m 33 78 l 33 0 l 594 0 l 594 78 l 413 78 l 413 690 l 435 690 b 664 494 561 690 664 629 b 457 278 664 371 581 292 l 579 221 b 917 494 728 225 917 314 b 496 768 917 683 736 768 l 413 768 l 413 881 l 542 881 l 542 958 l 33 958 l 33 881 l 163 881 l 163 78 z "},"Ú":{"ha":1108,"x_min":0,"x_max":0,"o":"m 865 388 b 631 129 865 238 776 129 b 399 390 471 129 399 239 l 399 881 l 528 881 l 528 958 l 19 958 l 19 881 l 149 881 l 149 363 b 556 -14 149 110 365 -14 b 960 367 767 -14 960 135 l 960 881 l 1089 881 l 1089 958 l 708 958 l 708 881 l 865 881 z m 931 1111 l 703 1299 l 444 1013 z "},"Ŭ":{"ha":1108,"x_min":0,"x_max":0,"o":"m 865 388 b 631 129 865 238 776 129 b 399 390 471 129 399 239 l 399 881 l 528 881 l 528 958 l 19 958 l 19 881 l 149 881 l 149 363 b 556 -14 149 110 365 -14 b 960 367 767 -14 960 135 l 960 881 l 1089 881 l 1089 958 l 708 958 l 708 881 l 865 881 z m 611 1007 b 849 1292 750 1007 849 1117 b 611 1161 793 1201 708 1161 b 374 1292 514 1161 429 1201 b 611 1007 374 1117 472 1007 z "},"Û":{"ha":1108,"x_min":0,"x_max":0,"o":"m 865 388 b 631 129 865 238 776 129 b 399 390 471 129 399 239 l 399 881 l 528 881 l 528 958 l 19 958 l 19 881 l 149 881 l 149 363 b 556 -14 149 110 365 -14 b 960 367 767 -14 960 135 l 960 881 l 1089 881 l 1089 958 l 708 958 l 708 881 l 865 881 z m 494 1281 l 325 999 l 597 1139 l 869 999 l 700 1281 z "},"Ü":{"ha":1108,"x_min":0,"x_max":0,"o":"m 865 388 b 631 129 865 238 776 129 b 399 390 471 129 399 239 l 399 881 l 528 881 l 528 958 l 19 958 l 19 881 l 149 881 l 149 363 b 556 -14 149 110 365 -14 b 960 367 767 -14 960 135 l 960 881 l 1089 881 l 1089 958 l 708 958 l 708 881 l 865 881 z m 747 1013 b 861 1125 813 1013 861 1061 b 747 1238 861 1189 813 1238 b 633 1125 682 1238 633 1189 b 747 1013 633 1061 682 1013 z m 461 1013 b 575 1125 526 1013 575 1061 b 461 1238 575 1189 526 1238 b 347 1125 396 1238 347 1189 b 461 1013 347 1061 396 1013 z "},"Ù":{"ha":1108,"x_min":0,"x_max":0,"o":"m 865 388 b 631 129 865 238 776 129 b 399 390 471 129 399 239 l 399 881 l 528 881 l 528 958 l 19 958 l 19 881 l 149 881 l 149 363 b 556 -14 149 110 365 -14 b 960 367 767 -14 960 135 l 960 881 l 1089 881 l 1089 958 l 708 958 l 708 881 l 865 881 z m 296 1111 l 782 1013 l 524 1299 z "},"Ű":{"ha":1108,"x_min":0,"x_max":0,"o":"m 865 388 b 631 129 865 238 776 129 b 399 390 471 129 399 239 l 399 881 l 528 881 l 528 958 l 19 958 l 19 881 l 149 881 l 149 363 b 556 -14 149 110 365 -14 b 960 367 767 -14 960 135 l 960 881 l 1089 881 l 1089 958 l 708 958 l 708 881 l 865 881 z m 817 1299 l 646 1013 l 1043 1201 z m 492 1299 l 321 1013 l 718 1201 z "},"Ū":{"ha":1108,"x_min":0,"x_max":0,"o":"m 865 388 b 631 129 865 238 776 129 b 399 390 471 129 399 239 l 399 881 l 528 881 l 528 958 l 19 958 l 19 881 l 149 881 l 149 363 b 556 -14 149 110 365 -14 b 960 367 767 -14 960 135 l 960 881 l 1089 881 l 1089 958 l 708 958 l 708 881 l 865 881 z m 428 1164 l 354 1053 l 808 1053 l 882 1164 z "},"Ų":{"ha":1108,"x_min":0,"x_max":0,"o":"m 865 388 b 631 129 865 238 776 129 b 399 390 471 129 399 239 l 399 881 l 528 881 l 528 958 l 19 958 l 19 881 l 149 881 l 149 363 b 556 -14 149 110 365 -14 b 650 -4 588 -14 619 -11 b 460 -261 549 -78 460 -178 b 572 -375 460 -336 511 -375 b 754 -261 646 -375 710 -324 l 699 -261 b 608 -175 643 -261 608 -226 b 729 17 608 -103 651 -31 b 960 367 847 88 960 197 l 960 881 l 1089 881 l 1089 958 l 708 958 l 708 881 l 865 881 z "},"Ů":{"ha":1108,"x_min":0,"x_max":0,"o":"m 865 388 b 631 129 865 238 776 129 b 399 390 471 129 399 239 l 399 881 l 528 881 l 528 958 l 19 958 l 19 881 l 149 881 l 149 363 b 556 -14 149 110 365 -14 b 960 367 767 -14 960 135 l 960 881 l 1089 881 l 1089 958 l 708 958 l 708 881 l 865 881 z m 597 1317 b 439 1157 511 1317 439 1244 b 597 999 439 1071 511 999 b 756 1157 683 999 756 1071 b 597 1317 756 1244 683 1317 z m 597 1246 b 685 1157 646 1246 685 1207 b 597 1069 685 1108 646 1069 b 510 1157 549 1069 510 1108 b 597 1246 510 1207 549 1246 z "},"Ũ":{"ha":1108,"x_min":0,"x_max":0,"o":"m 865 388 b 631 129 865 238 776 129 b 399 390 471 129 399 239 l 399 881 l 528 881 l 528 958 l 19 958 l 19 881 l 149 881 l 149 363 b 556 -14 149 110 365 -14 b 960 367 767 -14 960 135 l 960 881 l 1089 881 l 1089 958 l 708 958 l 708 881 l 865 881 z m 754 1024 l 885 1275 b 708 1192 806 1224 753 1192 l 446 1247 l 315 996 b 492 1079 394 1047 447 1079 z "},"Ẃ":{"ha":1460,"x_min":0,"x_max":0,"o":"m 354 881 l 449 881 l 449 958 l 0 958 l 0 881 l 101 881 l 496 -42 l 742 549 l 978 -42 l 1358 881 l 1460 881 l 1460 958 l 1113 958 l 1113 881 l 1269 881 l 1056 350 l 851 881 l 994 881 l 994 958 l 528 958 l 528 881 l 608 881 l 701 649 l 578 346 z m 1039 1111 l 811 1299 l 553 1013 z "},"Ŵ":{"ha":1460,"x_min":0,"x_max":0,"o":"m 354 881 l 449 881 l 449 958 l 0 958 l 0 881 l 101 881 l 496 -42 l 742 549 l 978 -42 l 1358 881 l 1460 881 l 1460 958 l 1113 958 l 1113 881 l 1269 881 l 1056 350 l 851 881 l 994 881 l 994 958 l 528 958 l 528 881 l 608 881 l 701 649 l 578 346 z m 643 1281 l 474 999 l 746 1139 l 1018 999 l 849 1281 z "},"Ẁ":{"ha":1460,"x_min":0,"x_max":0,"o":"m 354 881 l 449 881 l 449 958 l 0 958 l 0 881 l 101 881 l 496 -42 l 742 549 l 978 -42 l 1358 881 l 1460 881 l 1460 958 l 1113 958 l 1113 881 l 1269 881 l 1056 350 l 851 881 l 994 881 l 994 958 l 528 958 l 528 881 l 608 881 l 701 649 l 578 346 z m 461 1111 l 947 1013 l 689 1299 z "},"Ẅ":{"ha":1460,"x_min":0,"x_max":0,"o":"m 354 881 l 449 881 l 449 958 l 0 958 l 0 881 l 101 881 l 496 -42 l 742 549 l 978 -42 l 1358 881 l 1460 881 l 1460 958 l 1113 958 l 1113 881 l 1269 881 l 1056 350 l 851 881 l 994 881 l 994 958 l 528 958 l 528 881 l 608 881 l 701 649 l 578 346 z m 889 1013 b 1003 1125 954 1013 1003 1061 b 889 1238 1003 1189 954 1238 b 775 1125 824 1238 775 1189 b 889 1013 775 1061 824 1013 z m 603 1013 b 717 1125 668 1013 717 1061 b 603 1238 717 1189 668 1238 b 489 1125 538 1238 489 1189 b 603 1013 489 1061 538 1013 z "},"Ý":{"ha":1067,"x_min":0,"x_max":0,"o":"m 822 0 l 822 78 l 660 78 l 660 463 l 965 881 l 1067 881 l 1067 958 l 713 958 l 713 881 l 864 881 l 625 554 l 396 881 l 547 881 l 547 958 l 0 958 l 0 881 l 101 881 l 410 463 l 410 78 l 247 78 l 247 0 z m 886 1111 l 400 1013 l 658 1299 z "},"Ŷ":{"ha":1067,"x_min":0,"x_max":0,"o":"m 822 0 l 822 78 l 660 78 l 660 463 l 965 881 l 1067 881 l 1067 958 l 713 958 l 713 881 l 864 881 l 625 554 l 396 881 l 547 881 l 547 958 l 0 958 l 0 881 l 101 881 l 410 463 l 410 78 l 247 78 l 247 0 z m 478 1281 l 308 999 l 581 1139 l 853 999 l 683 1281 z "},"Ÿ":{"ha":1067,"x_min":0,"x_max":0,"o":"m 822 0 l 822 78 l 660 78 l 660 463 l 965 881 l 1067 881 l 1067 958 l 713 958 l 713 881 l 864 881 l 625 554 l 396 881 l 547 881 l 547 958 l 0 958 l 0 881 l 101 881 l 410 463 l 410 78 l 247 78 l 247 0 z m 724 1013 b 838 1125 789 1013 838 1061 b 724 1238 838 1189 789 1238 b 610 1125 658 1238 610 1189 b 724 1013 610 1061 658 1013 z m 438 1013 b 551 1125 503 1013 551 1061 b 438 1238 551 1189 503 1238 b 324 1125 372 1238 324 1189 b 438 1013 324 1061 372 1013 z "},"Ỳ":{"ha":1067,"x_min":0,"x_max":0,"o":"m 822 0 l 822 78 l 660 78 l 660 463 l 965 881 l 1067 881 l 1067 958 l 713 958 l 713 881 l 864 881 l 625 554 l 396 881 l 547 881 l 547 958 l 0 958 l 0 881 l 101 881 l 410 463 l 410 78 l 247 78 l 247 0 z m 265 1111 l 751 1013 l 493 1299 z "},"Ź":{"ha":954,"x_min":0,"x_max":0,"o":"m 647 78 l 354 78 l 915 958 l 149 958 l 74 999 l 74 632 l 285 881 l 583 881 l 18 0 l 868 0 l 926 390 z m 785 1111 l 557 1299 l 299 1013 z "},"Ž":{"ha":954,"x_min":0,"x_max":0,"o":"m 647 78 l 354 78 l 915 958 l 149 958 l 74 999 l 74 632 l 285 881 l 583 881 l 18 0 l 868 0 l 926 390 z m 390 1013 l 596 1013 l 765 1294 l 493 1154 l 221 1294 z "},"Ż":{"ha":954,"x_min":0,"x_max":0,"o":"m 647 78 l 354 78 l 915 958 l 149 958 l 74 999 l 74 632 l 285 881 l 583 881 l 18 0 l 868 0 l 926 390 z m 507 1008 b 640 1143 581 1008 640 1069 b 507 1278 640 1217 581 1278 b 374 1143 433 1278 374 1217 b 507 1008 374 1069 433 1008 z "},"a":{"ha":707,"x_min":0,"x_max":0,"o":"m 369 421 l 369 375 l 226 317 b 29 126 113 271 29 224 b 182 -10 29 46 99 -10 b 358 99 269 -10 325 47 l 371 99 b 536 -11 399 36 456 -11 b 715 163 635 -11 715 61 b 658 129 701 140 679 129 b 606 193 628 129 606 153 l 606 443 b 411 653 606 571 532 653 b 31 394 253 653 74 542 l 238 394 l 238 563 b 369 421 335 563 369 517 z m 369 315 l 369 129 b 324 118 357 121 339 118 b 249 194 283 118 249 143 b 342 303 249 249 282 276 z "},"b":{"ha":819,"x_min":0,"x_max":0,"o":"m 69 875 l 69 75 b 375 -14 133 31 250 -14 b 788 368 590 -14 788 146 b 529 653 788 514 692 653 b 319 542 433 653 363 600 l 306 542 l 306 1083 l -44 989 z m 306 514 b 350 522 318 519 333 522 b 556 271 465 522 556 435 b 407 49 556 143 496 49 b 306 126 357 49 322 85 z "},"c":{"ha":660,"x_min":0,"x_max":0,"o":"m 485 396 b 607 510 550 396 607 447 b 396 653 607 592 519 653 b 32 308 197 653 32 488 b 347 -14 32 119 172 -14 b 629 257 500 -14 608 93 b 442 168 586 199 515 168 b 239 388 324 168 239 258 b 378 599 239 494 300 583 z "},"d":{"ha":831,"x_min":0,"x_max":0,"o":"m 750 154 l 750 1083 l 400 989 l 514 875 l 514 628 b 392 653 483 642 438 653 b 32 285 201 653 32 499 b 290 -14 32 131 129 -14 b 500 100 385 -14 457 42 l 514 100 l 514 -14 l 835 58 z m 514 128 b 469 119 501 122 486 119 b 264 368 354 119 264 204 b 413 590 264 496 324 590 b 514 513 463 590 497 554 z "},"e":{"ha":671,"x_min":0,"x_max":0,"o":"m 644 256 b 447 167 600 197 521 167 b 228 378 326 167 236 250 l 643 378 b 368 653 643 522 540 653 b 32 310 185 653 32 489 b 354 -14 32 124 174 -14 b 644 256 503 -14 624 92 z m 333 590 b 429 440 394 590 429 528 l 229 440 b 333 590 239 535 278 590 z "},"f":{"ha":501,"x_min":0,"x_max":0,"o":"m 93 75 l 31 75 l 31 0 l 432 0 l 432 75 l 329 75 l 329 533 l 475 533 l 526 619 l 329 619 b 454 1017 329 797 374 961 l 608 849 b 718 978 675 868 718 908 b 565 1083 718 1035 668 1083 b 93 639 371 1083 124 896 l -6 568 l 93 471 z "},"g":{"ha":750,"x_min":0,"x_max":0,"o":"m 206 117 l 206 226 b 332 206 244 213 288 206 b 640 429 493 206 640 301 b 621 507 640 457 633 483 l 743 507 l 743 685 l 565 575 b 332 653 507 624 422 653 b 24 429 171 653 24 557 b 183 233 24 343 90 271 b 33 64 94 196 33 140 b 164 -83 33 -15 99 -65 l 164 -96 b -37 -237 71 -108 -37 -150 b 286 -403 -37 -350 124 -403 b 750 -68 513 -403 750 -269 b 501 117 750 57 644 117 z m 257 429 b 332 608 257 529 290 608 b 407 429 374 608 407 529 b 332 250 407 329 374 250 b 257 429 290 250 257 329 z m 426 -101 b 560 -192 506 -101 560 -126 b 339 -336 560 -278 457 -336 b 153 -200 225 -336 153 -283 b 197 -101 153 -153 172 -121 z "},"h":{"ha":822,"x_min":0,"x_max":0,"o":"m 82 875 l 82 75 l 19 75 l 19 0 l 381 0 l 381 75 l 318 75 l 318 517 b 378 524 336 521 357 524 b 499 390 460 524 499 471 l 499 75 l 436 75 l 436 0 l 797 0 l 797 75 l 735 75 l 735 449 b 543 653 735 565 660 653 b 332 546 451 653 385 603 l 318 546 l 318 1083 l -32 989 z "},"i":{"ha":410,"x_min":0,"x_max":0,"o":"m 210 742 b 338 871 281 742 338 800 b 210 1000 338 942 281 1000 b 82 871 139 1000 82 942 b 210 742 82 800 139 742 z m 93 75 l 31 75 l 31 0 l 390 0 l 390 75 l 329 75 l 329 667 l 8 553 l 93 457 z "},"j":{"ha":401,"x_min":0,"x_max":0,"o":"m 210 742 b 338 871 281 742 338 800 b 210 1000 338 942 281 1000 b 82 871 139 1000 82 942 b 210 742 82 800 139 742 z m -96 -403 b 329 -72 83 -403 279 -210 l 329 667 l 8 553 l 93 457 l 93 -54 b 42 -318 93 -185 68 -274 l -126 -175 b -217 -296 -172 -197 -217 -239 b -96 -403 -217 -360 -167 -403 z "},"k":{"ha":843,"x_min":0,"x_max":0,"o":"m 82 75 l 19 75 l 19 0 l 381 0 l 381 75 l 318 75 l 318 350 l 564 0 l 847 0 l 533 408 l 731 564 l 811 564 l 811 639 l 475 639 l 475 564 l 594 564 l 594 550 l 367 364 l 318 364 l 318 1083 l -32 989 l 82 875 z "},"l":{"ha":399,"x_min":0,"x_max":0,"o":"m 82 75 l 19 75 l 19 0 l 381 0 l 381 75 l 318 75 l 318 1083 l -32 989 l 82 875 z "},"m":{"ha":1232,"x_min":0,"x_max":0,"o":"m 93 457 l 93 75 l 31 75 l 31 0 l 386 0 l 386 75 l 329 75 l 329 517 b 386 524 346 521 367 524 b 501 390 465 524 501 471 l 501 75 l 443 75 l 443 0 l 794 0 l 794 75 l 738 75 l 738 517 b 794 524 754 521 775 524 b 910 390 874 524 910 471 l 910 75 l 851 75 l 851 0 l 1207 0 l 1207 75 l 1146 75 l 1146 449 b 964 653 1146 565 1074 653 b 746 546 865 653 800 601 l 732 546 b 556 653 707 604 642 653 b 343 546 457 653 397 601 l 329 546 l 329 667 l 8 553 z "},"n":{"ha":833,"x_min":0,"x_max":0,"o":"m 93 457 l 93 75 l 31 75 l 31 0 l 390 0 l 390 75 l 329 75 l 329 517 b 389 524 347 521 368 524 b 510 390 471 524 510 471 l 510 75 l 447 75 l 447 0 l 808 0 l 808 75 l 746 75 l 746 449 b 554 653 746 565 671 653 b 343 546 463 653 396 603 l 329 546 l 329 667 l 8 553 z "},"o":{"ha":772,"x_min":0,"x_max":0,"o":"m 32 319 b 386 -14 32 128 197 -14 b 740 319 575 -14 740 128 b 386 653 740 511 575 653 b 32 319 197 653 32 511 z m 286 319 b 386 597 286 478 329 597 b 486 319 443 597 486 478 b 386 42 486 161 443 42 b 286 319 329 42 286 161 z "},"p":{"ha":826,"x_min":0,"x_max":0,"o":"m 76 457 l 76 -314 l 15 -314 l 15 -389 l 440 -389 l 440 -314 l 313 -314 l 313 11 b 435 -14 343 -3 389 -14 b 794 368 628 -14 794 146 b 536 653 794 514 699 653 b 326 542 440 653 369 600 l 313 542 l 313 667 l -7 553 z m 313 126 l 313 514 b 357 522 325 519 340 522 b 563 271 472 522 563 435 b 414 49 563 143 503 49 b 313 126 364 49 329 85 z "},"q":{"ha":819,"x_min":0,"x_max":0,"o":"m 514 -314 l 386 -314 l 386 -389 l 811 -389 l 811 -314 l 750 -314 l 750 668 l 579 600 b 401 653 546 625 479 653 b 32 285 201 653 32 504 b 290 -14 32 131 129 -14 b 500 100 385 -14 457 42 l 514 100 z m 514 128 b 469 119 501 122 486 119 b 264 368 354 119 264 204 b 413 590 264 496 324 590 b 514 513 463 590 497 554 z "},"r":{"ha":660,"x_min":0,"x_max":0,"o":"m 93 457 l 93 75 l 31 75 l 31 0 l 432 0 l 432 75 l 329 75 l 329 447 l 411 497 l 524 376 b 654 533 583 397 654 450 b 532 653 654 604 603 653 b 343 500 447 653 394 578 l 329 500 l 329 667 l 8 553 z "},"s":{"ha":622,"x_min":0,"x_max":0,"o":"m 44 58 b 288 -14 92 18 189 -14 b 579 215 444 -14 579 76 b 253 515 579 443 253 401 b 324 579 253 553 279 579 b 543 401 397 579 464 503 l 543 653 l 456 603 b 300 653 422 629 367 653 b 53 431 163 653 53 554 b 371 126 53 201 371 253 b 290 58 371 79 335 58 b 44 256 208 58 122 140 z "},"t":{"ha":533,"x_min":0,"x_max":0,"o":"m -10 593 l 79 503 l 71 192 b 282 -14 71 60 167 -14 b 533 199 410 -14 503 63 b 413 142 500 160 458 142 b 306 247 357 142 306 175 l 306 533 l 479 533 l 531 619 l 306 619 l 306 811 z "},"u":{"ha":825,"x_min":0,"x_max":0,"o":"m 496 -14 l 817 58 l 732 154 l 732 644 l 421 617 l 421 542 l 496 542 l 496 122 b 439 115 478 118 460 115 b 324 249 360 115 324 168 l 324 644 l 21 617 l 21 542 l 88 542 l 88 190 b 279 -14 88 74 163 -14 b 482 93 371 -14 429 36 l 496 93 z "},"v":{"ha":769,"x_min":0,"x_max":0,"o":"m 613 564 l 465 269 l 318 564 l 424 564 l 424 639 l 7 639 l 7 564 l 67 564 l 386 -42 l 704 564 l 763 564 l 763 639 l 499 639 l 499 564 z "},"w":{"ha":1088,"x_min":0,"x_max":0,"o":"m 933 564 l 811 289 l 690 564 l 767 564 l 767 639 l 426 639 l 426 564 l 469 564 l 513 467 l 431 286 l 310 564 l 371 564 l 371 639 l 7 639 l 7 564 l 67 564 l 354 -42 l 549 385 l 736 -42 l 1022 564 l 1081 564 l 1081 639 l 822 639 l 822 564 z "},"x":{"ha":825,"x_min":0,"x_max":0,"o":"m 93 75 l 7 75 l 7 0 l 297 0 l 297 75 l 185 75 l 336 257 l 485 75 l 390 75 l 390 0 l 818 0 l 818 75 l 754 75 l 525 365 l 696 564 l 776 564 l 776 639 l 518 639 l 518 564 l 606 564 l 483 419 l 369 564 l 449 564 l 449 639 l 22 639 l 22 564 l 86 564 l 293 311 z "},"y":{"ha":769,"x_min":0,"x_max":0,"o":"m 613 564 l 461 233 l 322 564 l 424 564 l 424 639 l 7 639 l 7 564 l 67 564 l 332 -18 l 210 -254 l 29 -185 b -14 -285 0 -214 -14 -250 b 111 -403 -14 -347 32 -403 b 304 -242 206 -403 264 -324 l 704 564 l 763 564 l 763 639 l 499 639 l 499 564 z "},"z":{"ha":715,"x_min":0,"x_max":0,"o":"m 324 75 l 690 639 l 158 639 l 108 694 l 36 390 l 240 564 l 386 564 l 11 0 l 650 0 l 697 292 l 511 75 z "},"á":{"ha":707,"x_min":0,"x_max":0,"o":"m 369 421 l 369 375 l 226 317 b 29 126 113 271 29 224 b 182 -10 29 46 99 -10 b 358 99 269 -10 325 47 l 371 99 b 536 -11 399 36 456 -11 b 715 163 635 -11 715 61 b 658 129 701 140 679 129 b 606 193 628 129 606 153 l 606 443 b 411 653 606 571 532 653 b 31 394 253 653 74 542 l 238 394 l 238 563 b 369 421 335 563 369 517 z m 369 315 l 369 129 b 324 118 357 121 339 118 b 249 194 283 118 249 143 b 342 303 249 249 282 276 z m 597 1007 l 333 1007 l 300 683 z "},"ă":{"ha":707,"x_min":0,"x_max":0,"o":"m 369 421 l 369 375 l 226 317 b 29 126 113 271 29 224 b 182 -10 29 46 99 -10 b 358 99 269 -10 325 47 l 371 99 b 536 -11 399 36 456 -11 b 715 163 635 -11 715 61 b 658 129 701 140 679 129 b 606 193 628 129 606 153 l 606 443 b 411 653 606 571 532 653 b 31 394 253 653 74 542 l 238 394 l 238 563 b 369 421 335 563 369 517 z m 369 315 l 369 129 b 324 118 357 121 339 118 b 249 194 283 118 249 143 b 342 303 249 249 282 276 z m 350 871 b 168 1067 282 871 219 918 b 350 711 140 883 225 711 b 532 1067 475 711 560 883 b 350 871 481 918 418 871 z "},"â":{"ha":707,"x_min":0,"x_max":0,"o":"m 369 421 l 369 375 l 226 317 b 29 126 113 271 29 224 b 182 -10 29 46 99 -10 b 358 99 269 -10 325 47 l 371 99 b 536 -11 399 36 456 -11 b 715 163 635 -11 715 61 b 658 129 701 140 679 129 b 606 193 628 129 606 153 l 606 443 b 411 653 606 571 532 653 b 31 394 253 653 74 542 l 238 394 l 238 563 b 369 421 335 563 369 517 z m 369 315 l 369 129 b 324 118 357 121 339 118 b 249 194 283 118 249 143 b 342 303 249 249 282 276 z m 343 854 l 571 669 l 432 993 l 254 993 l 115 669 z "},"ä":{"ha":707,"x_min":0,"x_max":0,"o":"m 369 421 l 369 375 l 226 317 b 29 126 113 271 29 224 b 182 -10 29 46 99 -10 b 358 99 269 -10 325 47 l 371 99 b 536 -11 399 36 456 -11 b 715 163 635 -11 715 61 b 658 129 701 140 679 129 b 606 193 628 129 606 153 l 606 443 b 411 653 606 571 532 653 b 31 394 253 653 74 542 l 238 394 l 238 563 b 369 421 335 563 369 517 z m 369 315 l 369 129 b 324 118 357 121 339 118 b 249 194 283 118 249 143 b 342 303 249 249 282 276 z m 478 742 b 592 854 543 742 592 790 b 478 969 592 918 543 969 b 364 854 413 969 364 918 b 478 742 364 790 413 742 z m 200 742 b 314 854 265 742 314 790 b 200 969 314 918 265 969 b 86 854 135 969 86 918 b 200 742 86 790 135 742 z "},"à":{"ha":707,"x_min":0,"x_max":0,"o":"m 369 421 l 369 375 l 226 317 b 29 126 113 271 29 224 b 182 -10 29 46 99 -10 b 358 99 269 -10 325 47 l 371 99 b 536 -11 399 36 456 -11 b 715 163 635 -11 715 61 b 658 129 701 140 679 129 b 606 193 628 129 606 153 l 606 443 b 411 653 606 571 532 653 b 31 394 253 653 74 542 l 238 394 l 238 563 b 369 421 335 563 369 517 z m 369 315 l 369 129 b 324 118 357 121 339 118 b 249 194 283 118 249 143 b 342 303 249 249 282 276 z m 140 1007 l 438 683 l 404 1007 z "},"ā":{"ha":707,"x_min":0,"x_max":0,"o":"m 369 421 l 369 375 l 226 317 b 29 126 113 271 29 224 b 182 -10 29 46 99 -10 b 358 99 269 -10 325 47 l 371 99 b 536 -11 399 36 456 -11 b 715 163 635 -11 715 61 b 658 129 701 140 679 129 b 606 193 628 129 606 153 l 606 443 b 411 653 606 571 532 653 b 31 394 253 653 74 542 l 238 394 l 238 563 b 369 421 335 563 369 517 z m 369 315 l 369 129 b 324 118 357 121 339 118 b 249 194 283 118 249 143 b 342 303 249 249 282 276 z m 193 893 l 119 782 l 521 782 l 594 893 z "},"ą":{"ha":707,"x_min":0,"x_max":0,"o":"m 369 421 l 369 375 l 226 317 b 29 126 113 271 29 224 b 182 -10 29 46 99 -10 b 358 99 269 -10 325 47 l 371 99 b 558 -10 406 25 458 -10 b 376 -261 460 -83 376 -181 b 489 -375 376 -336 428 -375 b 671 -261 563 -375 626 -324 l 615 -261 b 525 -169 560 -261 525 -232 b 607 -11 525 -110 560 -51 b 715 163 657 32 715 81 b 658 129 701 140 679 129 b 606 193 628 129 606 153 l 606 443 b 411 653 606 571 532 653 b 31 394 253 653 74 542 l 238 394 l 238 563 b 369 421 335 563 369 517 z m 369 315 l 369 129 b 324 118 357 121 339 118 b 249 194 283 118 249 143 b 342 303 249 249 282 276 z "},"å":{"ha":707,"x_min":0,"x_max":0,"o":"m 369 421 l 369 375 l 226 317 b 29 126 113 271 29 224 b 182 -10 29 46 99 -10 b 358 99 269 -10 325 47 l 371 99 b 536 -11 399 36 456 -11 b 715 163 635 -11 715 61 b 658 129 701 140 679 129 b 606 193 628 129 606 153 l 606 443 b 411 653 606 571 532 653 b 31 394 253 653 74 542 l 238 394 l 238 563 b 369 421 335 563 369 517 z m 369 315 l 369 129 b 324 118 357 121 339 118 b 249 194 283 118 249 143 b 342 303 249 249 282 276 z m 351 1021 b 199 868 268 1021 199 951 b 351 715 199 785 268 715 b 504 868 435 715 504 785 b 351 1021 504 951 435 1021 z m 351 953 b 436 868 399 953 436 915 b 351 783 436 821 399 783 b 267 868 304 783 267 821 b 351 953 267 915 304 953 z "},"ã":{"ha":707,"x_min":0,"x_max":0,"o":"m 369 421 l 369 375 l 226 317 b 29 126 113 271 29 224 b 182 -10 29 46 99 -10 b 358 99 269 -10 325 47 l 371 99 b 536 -11 399 36 456 -11 b 715 163 635 -11 715 61 b 658 129 701 140 679 129 b 606 193 628 129 606 153 l 606 443 b 411 653 606 571 532 653 b 31 394 253 653 74 542 l 238 394 l 238 563 b 369 421 335 563 369 517 z m 369 315 l 369 129 b 324 118 357 121 339 118 b 249 194 283 118 249 143 b 342 303 249 249 282 276 z m 500 774 l 617 1036 b 440 925 538 971 485 925 l 206 967 l 89 704 b 265 815 168 769 221 815 z "},"æ":{"ha":1006,"x_min":0,"x_max":0,"o":"m 972 256 b 775 167 928 197 849 167 b 564 328 671 167 589 229 l 979 403 b 696 653 967 544 868 653 b 528 604 635 653 578 635 b 397 653 501 631 463 653 b 31 394 253 653 74 542 l 238 394 l 238 563 b 379 419 333 563 375 508 b 363 347 371 396 365 372 l 254 328 b 29 136 121 303 29 243 b 193 -10 29 53 99 -10 b 410 104 283 -10 375 50 l 429 104 b 682 -14 489 31 579 -14 b 972 256 831 -14 951 92 z m 764 421 l 556 383 b 556 396 556 388 556 392 b 661 590 556 517 597 590 b 764 421 722 590 764 508 z m 249 194 b 344 289 249 249 289 279 l 360 292 b 408 133 363 232 381 179 b 336 115 397 124 363 115 b 249 194 288 115 249 143 z "},"ǽ":{"ha":1006,"x_min":0,"x_max":0,"o":"m 972 256 b 775 167 928 197 849 167 b 564 328 671 167 589 229 l 979 403 b 696 653 967 544 868 653 b 528 604 635 653 578 635 b 397 653 501 631 463 653 b 31 394 253 653 74 542 l 238 394 l 238 563 b 379 419 333 563 375 508 b 363 347 371 396 365 372 l 254 328 b 29 136 121 303 29 243 b 193 -10 29 53 99 -10 b 410 104 283 -10 375 50 l 429 104 b 682 -14 489 31 579 -14 b 972 256 831 -14 951 92 z m 764 421 l 556 383 b 556 396 556 388 556 392 b 661 590 556 517 597 590 b 764 421 722 590 764 508 z m 249 194 b 344 289 249 249 289 279 l 360 292 b 408 133 363 232 381 179 b 336 115 397 124 363 115 b 249 194 288 115 249 143 z m 782 1007 l 518 1007 l 485 683 z "},"ć":{"ha":660,"x_min":0,"x_max":0,"o":"m 485 396 b 607 510 550 396 607 447 b 396 653 607 592 519 653 b 32 308 197 653 32 488 b 347 -14 32 119 172 -14 b 629 257 500 -14 608 93 b 442 168 586 199 515 168 b 239 388 324 168 239 258 b 378 599 239 494 300 583 z m 599 1007 l 335 1007 l 301 683 z "},"č":{"ha":660,"x_min":0,"x_max":0,"o":"m 485 396 b 607 510 550 396 607 447 b 396 653 607 592 519 653 b 32 308 197 653 32 488 b 347 -14 32 119 172 -14 b 629 257 500 -14 608 93 b 442 168 586 199 515 168 b 239 388 324 168 239 258 b 378 599 239 494 300 583 z m 368 864 l 140 1049 l 279 725 l 457 725 l 596 1049 z "},"ç":{"ha":660,"x_min":0,"x_max":0,"o":"m 233 -371 b 463 -200 335 -371 463 -292 b 318 -61 463 -128 397 -85 l 321 -12 b 347 -14 329 -14 339 -14 b 629 257 500 -14 608 93 b 442 168 586 199 515 168 b 239 388 324 168 239 258 b 378 599 239 494 300 583 l 485 396 b 607 510 550 396 607 447 b 396 653 607 592 519 653 b 32 308 197 653 32 488 b 300 -11 32 136 147 11 l 207 -154 b 340 -256 269 -169 340 -200 b 285 -332 340 -292 317 -322 l 211 -225 b 135 -296 171 -225 135 -254 b 233 -371 135 -336 175 -371 z "},"ĉ":{"ha":660,"x_min":0,"x_max":0,"o":"m 485 396 b 607 510 550 396 607 447 b 396 653 607 592 519 653 b 32 308 197 653 32 488 b 347 -14 32 119 172 -14 b 629 257 500 -14 608 93 b 442 168 586 199 515 168 b 239 388 324 168 239 258 b 378 599 239 494 300 583 z m 368 854 l 596 669 l 457 993 l 279 993 l 140 669 z "},"ċ":{"ha":660,"x_min":0,"x_max":0,"o":"m 485 396 b 607 510 550 396 607 447 b 396 653 607 592 519 653 b 32 308 197 653 32 488 b 347 -14 32 119 172 -14 b 629 257 500 -14 608 93 b 442 168 586 199 515 168 b 239 388 324 168 239 258 b 378 599 239 494 300 583 z m 368 742 b 496 871 439 742 496 800 b 368 1000 496 942 439 1000 b 240 871 297 1000 240 942 b 368 742 240 800 297 742 z "},"ď":{"ha":1088,"x_min":0,"x_max":0,"o":"m 750 154 l 750 1083 l 400 989 l 514 875 l 514 628 b 392 653 483 642 438 653 b 32 285 201 653 32 499 b 290 -14 32 131 129 -14 b 500 100 385 -14 457 42 l 514 100 l 514 -14 l 835 58 z m 514 128 b 469 119 501 122 486 119 b 264 368 354 119 264 204 b 413 590 264 496 324 590 b 514 513 463 590 497 554 z m 1089 1069 l 853 1069 l 819 704 z "},"đ":{"ha":844,"x_min":0,"x_max":0,"o":"m 750 154 l 750 744 l 815 744 l 849 814 l 750 814 l 750 1083 l 400 989 l 514 875 l 514 814 l 354 814 l 321 744 l 514 744 l 514 628 b 392 653 483 642 438 653 b 32 285 201 653 32 499 b 290 -14 32 131 129 -14 b 500 100 385 -14 457 42 l 514 100 l 514 -14 l 835 58 z m 514 128 b 469 119 501 122 486 119 b 264 368 354 119 264 204 b 413 590 264 496 324 590 b 514 513 463 590 497 554 z "},"é":{"ha":671,"x_min":0,"x_max":0,"o":"m 644 256 b 447 167 600 197 521 167 b 228 378 326 167 236 250 l 643 378 b 368 653 643 522 540 653 b 32 310 185 653 32 489 b 354 -14 32 124 174 -14 b 644 256 503 -14 624 92 z m 333 590 b 429 440 394 590 429 528 l 229 440 b 333 590 239 535 278 590 z m 608 1007 l 344 1007 l 311 683 z "},"ĕ":{"ha":671,"x_min":0,"x_max":0,"o":"m 644 256 b 447 167 600 197 521 167 b 228 378 326 167 236 250 l 643 378 b 368 653 643 522 540 653 b 32 310 185 653 32 489 b 354 -14 32 124 174 -14 b 644 256 503 -14 624 92 z m 333 590 b 429 440 394 590 429 528 l 229 440 b 333 590 239 535 278 590 z m 364 871 b 182 1067 296 871 233 918 b 364 711 154 883 239 711 b 546 1067 489 711 574 883 b 364 871 494 918 432 871 z "},"ě":{"ha":671,"x_min":0,"x_max":0,"o":"m 644 256 b 447 167 600 197 521 167 b 228 378 326 167 236 250 l 643 378 b 368 653 643 522 540 653 b 32 310 185 653 32 489 b 354 -14 32 124 174 -14 b 644 256 503 -14 624 92 z m 333 590 b 429 440 394 590 429 528 l 229 440 b 333 590 239 535 278 590 z m 367 864 l 139 1049 l 278 725 l 456 725 l 594 1049 z "},"ê":{"ha":671,"x_min":0,"x_max":0,"o":"m 644 256 b 447 167 600 197 521 167 b 228 378 326 167 236 250 l 643 378 b 368 653 643 522 540 653 b 32 310 185 653 32 489 b 354 -14 32 124 174 -14 b 644 256 503 -14 624 92 z m 333 590 b 429 440 394 590 429 528 l 229 440 b 333 590 239 535 278 590 z m 356 854 l 583 669 l 444 993 l 267 993 l 128 669 z "},"ë":{"ha":671,"x_min":0,"x_max":0,"o":"m 644 256 b 447 167 600 197 521 167 b 228 378 326 167 236 250 l 643 378 b 368 653 643 522 540 653 b 32 310 185 653 32 489 b 354 -14 32 124 174 -14 b 644 256 503 -14 624 92 z m 333 590 b 429 440 394 590 429 528 l 229 440 b 333 590 239 535 278 590 z m 507 742 b 621 854 572 742 621 790 b 507 969 621 918 572 969 b 393 854 442 969 393 918 b 507 742 393 790 442 742 z m 229 742 b 343 854 294 742 343 790 b 229 969 343 918 294 969 b 115 854 164 969 115 918 b 229 742 115 790 164 742 z "},"ė":{"ha":671,"x_min":0,"x_max":0,"o":"m 644 256 b 447 167 600 197 521 167 b 228 378 326 167 236 250 l 643 378 b 368 653 643 522 540 653 b 32 310 185 653 32 489 b 354 -14 32 124 174 -14 b 644 256 503 -14 624 92 z m 333 590 b 429 440 394 590 429 528 l 229 440 b 333 590 239 535 278 590 z m 364 742 b 492 871 435 742 492 800 b 364 1000 492 942 435 1000 b 236 871 293 1000 236 942 b 364 742 236 800 293 742 z "},"è":{"ha":671,"x_min":0,"x_max":0,"o":"m 644 256 b 447 167 600 197 521 167 b 228 378 326 167 236 250 l 643 378 b 368 653 643 522 540 653 b 32 310 185 653 32 489 b 354 -14 32 124 174 -14 b 644 256 503 -14 624 92 z m 333 590 b 429 440 394 590 429 528 l 229 440 b 333 590 239 535 278 590 z m 124 1007 l 421 683 l 388 1007 z "},"ē":{"ha":671,"x_min":0,"x_max":0,"o":"m 644 256 b 447 167 600 197 521 167 b 228 378 326 167 236 250 l 643 378 b 368 653 643 522 540 653 b 32 310 185 653 32 489 b 354 -14 32 124 174 -14 b 644 256 503 -14 624 92 z m 333 590 b 429 440 394 590 429 528 l 229 440 b 333 590 239 535 278 590 z m 219 893 l 146 782 l 547 782 l 621 893 z "},"ę":{"ha":671,"x_min":0,"x_max":0,"o":"m 494 18 b 644 256 572 74 631 151 b 447 167 600 197 521 167 b 228 378 326 167 236 250 l 643 378 b 368 653 643 522 540 653 b 32 310 185 653 32 489 b 354 -14 32 124 174 -14 b 413 -8 378 -14 396 -12 b 229 -261 314 -82 229 -179 b 342 -375 229 -336 281 -375 b 524 -261 415 -375 479 -324 l 468 -261 b 378 -171 413 -261 378 -225 b 494 18 378 -99 419 -36 z m 333 590 b 429 440 394 590 429 528 l 229 440 b 333 590 239 535 278 590 z "},"ð":{"ha":772,"x_min":0,"x_max":0,"o":"m 189 733 l 390 810 b 488 617 435 746 468 679 l 461 617 b 363 647 439 633 407 647 b 32 319 193 647 32 511 b 386 -14 32 128 197 -14 b 740 413 589 -14 740 163 b 551 871 740 590 665 751 l 644 906 l 644 974 l 500 919 b 101 1083 386 1018 244 1078 b 351 863 194 1028 282 949 l 189 801 z m 286 319 b 386 597 286 478 329 597 b 486 319 443 597 486 478 b 386 42 486 161 443 42 b 286 319 329 42 286 161 z "},"ğ":{"ha":750,"x_min":0,"x_max":0,"o":"m 206 117 l 206 226 b 332 206 244 213 288 206 b 640 429 493 206 640 301 b 621 507 640 457 633 483 l 743 507 l 743 685 l 565 575 b 332 653 507 624 422 653 b 24 429 171 653 24 557 b 183 233 24 343 90 271 b 33 64 94 196 33 140 b 164 -83 33 -15 99 -65 l 164 -96 b -37 -237 71 -108 -37 -150 b 286 -403 -37 -350 124 -403 b 750 -68 513 -403 750 -269 b 501 117 750 57 644 117 z m 257 429 b 332 608 257 529 290 608 b 407 429 374 608 407 529 b 332 250 407 329 374 250 b 257 429 290 250 257 329 z m 426 -101 b 560 -192 506 -101 560 -126 b 339 -336 560 -278 457 -336 b 153 -200 225 -336 153 -283 b 197 -101 153 -153 172 -121 z m 358 871 b 176 1067 290 871 228 918 b 358 711 149 883 233 711 b 540 1067 483 711 568 883 b 358 871 489 918 426 871 z "},"ĝ":{"ha":750,"x_min":0,"x_max":0,"o":"m 206 117 l 206 226 b 332 206 244 213 288 206 b 640 429 493 206 640 301 b 621 507 640 457 633 483 l 743 507 l 743 685 l 565 575 b 332 653 507 624 422 653 b 24 429 171 653 24 557 b 183 233 24 343 90 271 b 33 64 94 196 33 140 b 164 -83 33 -15 99 -65 l 164 -96 b -37 -237 71 -108 -37 -150 b 286 -403 -37 -350 124 -403 b 750 -68 513 -403 750 -269 b 501 117 750 57 644 117 z m 257 429 b 332 608 257 529 290 608 b 407 429 374 608 407 529 b 332 250 407 329 374 250 b 257 429 290 250 257 329 z m 426 -101 b 560 -192 506 -101 560 -126 b 339 -336 560 -278 457 -336 b 153 -200 225 -336 153 -283 b 197 -101 153 -153 172 -121 z m 344 854 l 572 669 l 433 993 l 256 993 l 117 669 z "},"ģ":{"ha":750,"x_min":0,"x_max":0,"o":"m 206 117 l 206 226 b 332 206 244 213 288 206 b 640 429 493 206 640 301 b 621 507 640 457 633 483 l 743 507 l 743 685 l 565 575 b 332 653 507 624 422 653 b 24 429 171 653 24 557 b 183 233 24 343 90 271 b 33 64 94 196 33 140 b 164 -83 33 -15 99 -65 l 164 -96 b -37 -237 71 -108 -37 -150 b 286 -403 -37 -350 124 -403 b 750 -68 513 -403 750 -269 b 501 117 750 57 644 117 z m 257 429 b 332 608 257 529 290 608 b 407 429 374 608 407 529 b 332 250 407 329 374 250 b 257 429 290 250 257 329 z m 426 -101 b 560 -192 506 -101 560 -126 b 339 -336 560 -278 457 -336 b 153 -200 225 -336 153 -283 b 197 -101 153 -153 172 -121 z m 471 835 b 431 914 471 868 454 897 l 326 914 b 481 1083 336 978 382 1039 b 207 875 313 1083 207 981 b 344 726 207 792 258 726 b 471 835 418 726 471 778 z "},"ġ":{"ha":750,"x_min":0,"x_max":0,"o":"m 206 117 l 206 226 b 332 206 244 213 288 206 b 640 429 493 206 640 301 b 621 507 640 457 633 483 l 743 507 l 743 685 l 565 575 b 332 653 507 624 422 653 b 24 429 171 653 24 557 b 183 233 24 343 90 271 b 33 64 94 196 33 140 b 164 -83 33 -15 99 -65 l 164 -96 b -37 -237 71 -108 -37 -150 b 286 -403 -37 -350 124 -403 b 750 -68 513 -403 750 -269 b 501 117 750 57 644 117 z m 257 429 b 332 608 257 529 290 608 b 407 429 374 608 407 529 b 332 250 407 329 374 250 b 257 429 290 250 257 329 z m 426 -101 b 560 -192 506 -101 560 -126 b 339 -336 560 -278 457 -336 b 153 -200 225 -336 153 -283 b 197 -101 153 -153 172 -121 z m 344 742 b 472 871 415 742 472 800 b 344 1000 472 942 415 1000 b 217 871 274 1000 217 942 b 344 742 217 800 274 742 z "},"ß":{"ha":922,"x_min":0,"x_max":0,"o":"m 628 33 l 528 222 b 417 113 469 222 417 178 b 600 -14 417 29 500 -14 b 899 247 754 -14 899 121 b 599 665 899 444 599 518 b 861 913 599 769 692 844 b 571 1083 821 1015 713 1083 b 93 639 349 1083 126 896 l -6 568 l 93 471 l 93 75 l 31 75 l 31 0 l 329 0 l 329 647 b 514 1021 329 854 389 1021 b 661 858 613 1021 661 924 b 442 526 551 769 442 654 b 717 147 442 343 717 275 b 628 33 717 86 671 46 z "},"ħ":{"ha":822,"x_min":0,"x_max":0,"o":"m 82 875 l 82 814 l 7 814 l -26 744 l 82 744 l 82 75 l 19 75 l 19 0 l 381 0 l 381 75 l 318 75 l 318 517 b 378 524 336 521 357 524 b 499 390 460 524 499 471 l 499 75 l 436 75 l 436 0 l 797 0 l 797 75 l 735 75 l 735 449 b 543 653 735 565 660 653 b 332 546 451 653 385 603 l 318 546 l 318 744 l 468 744 l 501 814 l 318 814 l 318 1083 l -32 989 z "},"ĥ":{"ha":822,"x_min":0,"x_max":0,"o":"m 82 875 l 82 75 l 19 75 l 19 0 l 381 0 l 381 75 l 318 75 l 318 517 b 378 524 336 521 357 524 b 499 390 460 524 499 471 l 499 75 l 436 75 l 436 0 l 797 0 l 797 75 l 735 75 l 735 449 b 543 653 735 565 660 653 b 332 546 451 653 385 603 l 318 546 l 318 1083 l -32 989 z m 272 1350 l 103 1068 l 375 1208 l 647 1068 l 478 1350 z "},"ı":{"ha":410,"x_min":0,"x_max":0,"o":"m 93 75 l 31 75 l 31 0 l 390 0 l 390 75 l 329 75 l 329 667 l 8 553 l 93 457 z "},"í":{"ha":410,"x_min":0,"x_max":0,"o":"m 93 75 l 31 75 l 31 0 l 390 0 l 390 75 l 329 75 l 329 667 l 8 553 l 93 457 z m 458 1007 l 194 1007 l 161 683 z "},"ĭ":{"ha":410,"x_min":0,"x_max":0,"o":"m 93 75 l 31 75 l 31 0 l 390 0 l 390 75 l 329 75 l 329 667 l 8 553 l 93 457 z m 211 871 b 29 1067 143 871 81 918 b 211 711 1 883 86 711 b 393 1067 336 711 421 883 b 211 871 342 918 279 871 z "},"î":{"ha":410,"x_min":0,"x_max":0,"o":"m 93 75 l 31 75 l 31 0 l 390 0 l 390 75 l 329 75 l 329 667 l 8 553 l 93 457 z m 214 854 l 442 669 l 303 993 l 125 993 l -14 669 z "},"ï":{"ha":410,"x_min":0,"x_max":0,"o":"m 93 75 l 31 75 l 31 0 l 390 0 l 390 75 l 329 75 l 329 667 l 8 553 l 93 457 z m 349 742 b 463 854 414 742 463 790 b 349 969 463 918 414 969 b 235 854 283 969 235 918 b 349 742 235 790 283 742 z m 71 742 b 185 854 136 742 185 790 b 71 969 185 918 136 969 b -43 854 6 969 -43 918 b 71 742 -43 790 6 742 z "},"ì":{"ha":410,"x_min":0,"x_max":0,"o":"m 93 75 l 31 75 l 31 0 l 390 0 l 390 75 l 329 75 l 329 667 l 8 553 l 93 457 z m -40 1007 l 257 683 l 224 1007 z "},"ī":{"ha":410,"x_min":0,"x_max":0,"o":"m 93 75 l 31 75 l 31 0 l 390 0 l 390 75 l 329 75 l 329 667 l 8 553 l 93 457 z m 56 893 l -18 782 l 383 782 l 457 893 z "},"į":{"ha":410,"x_min":0,"x_max":0,"o":"m 210 742 b 338 871 281 742 338 800 b 210 1000 338 942 281 1000 b 82 871 139 1000 82 942 b 210 742 82 800 139 742 z m 93 75 l 31 75 l 31 0 l 254 0 b 58 -261 150 -75 58 -176 b 171 -375 58 -336 110 -375 b 353 -261 244 -375 308 -324 l 297 -261 b 207 -181 242 -261 207 -232 b 300 0 207 -125 238 -60 l 390 0 l 390 75 l 329 75 l 329 667 l 8 553 l 93 457 z "},"ĩ":{"ha":410,"x_min":0,"x_max":0,"o":"m 93 75 l 31 75 l 31 0 l 390 0 l 390 75 l 329 75 l 329 667 l 8 553 l 93 457 z m 353 774 l 469 1036 b 293 925 390 971 338 925 l 58 967 l -58 704 b 118 815 21 769 74 815 z "},"ȷ":{"ha":401,"x_min":0,"x_max":0,"o":"m -96 -403 b 329 -72 83 -403 279 -210 l 329 667 l 8 553 l 93 457 l 93 -54 b 42 -318 93 -185 68 -274 l -126 -175 b -217 -296 -172 -197 -217 -239 b -96 -403 -217 -360 -167 -403 z "},"ĵ":{"ha":401,"x_min":0,"x_max":0,"o":"m -96 -403 b 329 -72 83 -403 279 -210 l 329 667 l 8 553 l 93 457 l 93 -54 b 42 -318 93 -185 68 -274 l -126 -175 b -217 -296 -172 -197 -217 -239 b -96 -403 -217 -360 -167 -403 z m 204 854 l 432 669 l 293 993 l 115 993 l -24 669 z "},"ķ":{"ha":843,"x_min":0,"x_max":0,"o":"m 82 75 l 19 75 l 19 0 l 381 0 l 381 75 l 318 75 l 318 350 l 564 0 l 847 0 l 533 408 l 731 564 l 811 564 l 811 639 l 475 639 l 475 564 l 594 564 l 594 550 l 367 364 l 318 364 l 318 1083 l -32 989 l 82 875 z m 303 -165 b 343 -244 303 -199 319 -228 l 447 -244 b 293 -414 438 -308 392 -369 b 567 -206 461 -414 567 -311 b 429 -57 567 -122 515 -57 b 303 -165 356 -57 303 -108 z "},"ĸ":{"ha":854,"x_min":0,"x_max":0,"o":"m 93 75 l 31 75 l 31 0 l 390 0 l 390 75 l 329 75 l 329 350 l 575 0 l 858 0 l 544 408 l 742 564 l 822 564 l 822 639 l 486 639 l 486 564 l 606 564 l 606 550 l 378 364 l 329 364 l 329 667 l 8 553 l 93 457 z "},"ĺ":{"ha":399,"x_min":0,"x_max":0,"o":"m 82 75 l 19 75 l 19 0 l 381 0 l 381 75 l 318 75 l 318 1083 l -32 989 l 82 875 z m 529 1181 l 301 1368 l 43 1082 z "},"ľ":{"ha":656,"x_min":0,"x_max":0,"o":"m 82 75 l 19 75 l 19 0 l 381 0 l 381 75 l 318 75 l 318 1083 l -32 989 l 82 875 z m 657 1069 l 421 1069 l 388 704 z "},"ļ":{"ha":399,"x_min":0,"x_max":0,"o":"m 82 75 l 19 75 l 19 0 l 381 0 l 381 75 l 318 75 l 318 1083 l -32 989 l 82 875 z m 65 -165 b 106 -244 65 -199 82 -228 l 210 -244 b 56 -414 200 -308 154 -369 b 329 -206 224 -414 329 -311 b 192 -57 329 -122 278 -57 b 65 -165 118 -57 65 -108 z "},"ŀ":{"ha":647,"x_min":0,"x_max":0,"o":"m 82 75 l 19 75 l 19 0 l 381 0 l 381 75 l 318 75 l 318 1083 l -32 989 l 82 875 z m 515 342 b 643 471 586 342 643 400 b 515 600 643 542 586 600 b 388 471 444 600 388 542 b 515 342 388 400 444 342 z "},"ł":{"ha":517,"x_min":0,"x_max":0,"o":"m 142 75 l 79 75 l 79 0 l 440 0 l 440 75 l 378 75 l 378 485 l 489 544 l 489 625 l 378 565 l 378 1083 l 28 989 l 142 875 l 142 467 l 31 408 l 31 328 l 142 386 z "},"ń":{"ha":833,"x_min":0,"x_max":0,"o":"m 93 457 l 93 75 l 31 75 l 31 0 l 390 0 l 390 75 l 329 75 l 329 517 b 389 524 347 521 368 524 b 510 390 471 524 510 471 l 510 75 l 447 75 l 447 0 l 808 0 l 808 75 l 746 75 l 746 449 b 554 653 746 565 671 653 b 343 546 463 653 396 603 l 329 546 l 329 667 l 8 553 z m 690 1007 l 426 1007 l 393 683 z "},"ň":{"ha":833,"x_min":0,"x_max":0,"o":"m 93 457 l 93 75 l 31 75 l 31 0 l 390 0 l 390 75 l 329 75 l 329 517 b 389 524 347 521 368 524 b 510 390 471 524 510 471 l 510 75 l 447 75 l 447 0 l 808 0 l 808 75 l 746 75 l 746 449 b 554 653 746 565 671 653 b 343 546 463 653 396 603 l 329 546 l 329 667 l 8 553 z m 406 864 l 178 1049 l 317 725 l 494 725 l 633 1049 z "},"ņ":{"ha":833,"x_min":0,"x_max":0,"o":"m 93 457 l 93 75 l 31 75 l 31 0 l 390 0 l 390 75 l 329 75 l 329 517 b 389 524 347 521 368 524 b 510 390 471 524 510 471 l 510 75 l 447 75 l 447 0 l 808 0 l 808 75 l 746 75 l 746 449 b 554 653 746 565 671 653 b 343 546 463 653 396 603 l 329 546 l 329 667 l 8 553 z m 286 -165 b 326 -244 286 -199 303 -228 l 431 -244 b 276 -414 421 -308 375 -369 b 550 -206 444 -414 550 -311 b 413 -57 550 -122 499 -57 b 286 -165 339 -57 286 -108 z "},"ñ":{"ha":833,"x_min":0,"x_max":0,"o":"m 93 457 l 93 75 l 31 75 l 31 0 l 390 0 l 390 75 l 329 75 l 329 517 b 389 524 347 521 368 524 b 510 390 471 524 510 471 l 510 75 l 447 75 l 447 0 l 808 0 l 808 75 l 746 75 l 746 449 b 554 653 746 565 671 653 b 343 546 463 653 396 603 l 329 546 l 329 667 l 8 553 z m 601 774 l 718 1036 b 542 925 639 971 586 925 l 307 967 l 190 704 b 367 815 269 769 322 815 z "},"ŋ":{"ha":818,"x_min":0,"x_max":0,"o":"m 746 -72 l 746 449 b 554 653 746 565 671 653 b 343 546 463 653 396 603 l 329 546 l 329 667 l 8 553 l 93 457 l 93 75 l 31 75 l 31 0 l 390 0 l 390 75 l 329 75 l 329 517 b 389 524 347 521 368 524 b 510 390 471 524 510 471 l 510 -54 b 458 -318 510 -185 485 -274 l 290 -175 b 200 -296 244 -197 200 -239 b 321 -403 200 -360 250 -403 b 746 -72 500 -403 696 -210 z "},"ó":{"ha":772,"x_min":0,"x_max":0,"o":"m 32 319 b 386 -14 32 128 197 -14 b 740 319 575 -14 740 128 b 386 653 740 511 575 653 b 32 319 197 653 32 511 z m 286 319 b 386 597 286 478 329 597 b 486 319 443 597 486 478 b 386 42 486 161 443 42 b 286 319 329 42 286 161 z m 618 1007 l 354 1007 l 321 683 z "},"ŏ":{"ha":772,"x_min":0,"x_max":0,"o":"m 32 319 b 386 -14 32 128 197 -14 b 740 319 575 -14 740 128 b 386 653 740 511 575 653 b 32 319 197 653 32 511 z m 286 319 b 386 597 286 478 329 597 b 486 319 443 597 486 478 b 386 42 486 161 443 42 b 286 319 329 42 286 161 z m 386 871 b 204 1067 318 871 256 918 b 386 711 176 883 261 711 b 568 1067 511 711 596 883 b 386 871 517 918 454 871 z "},"ô":{"ha":772,"x_min":0,"x_max":0,"o":"m 32 319 b 386 -14 32 128 197 -14 b 740 319 575 -14 740 128 b 386 653 740 511 575 653 b 32 319 197 653 32 511 z m 286 319 b 386 597 286 478 329 597 b 486 319 443 597 486 478 b 386 42 486 161 443 42 b 286 319 329 42 286 161 z m 386 854 l 614 669 l 475 993 l 297 993 l 158 669 z "},"ö":{"ha":772,"x_min":0,"x_max":0,"o":"m 32 319 b 386 -14 32 128 197 -14 b 740 319 575 -14 740 128 b 386 653 740 511 575 653 b 32 319 197 653 32 511 z m 286 319 b 386 597 286 478 329 597 b 486 319 443 597 486 478 b 386 42 486 161 443 42 b 286 319 329 42 286 161 z m 525 742 b 639 854 590 742 639 790 b 525 969 639 918 590 969 b 411 854 460 969 411 918 b 525 742 411 790 460 742 z m 247 742 b 361 854 313 742 361 790 b 247 969 361 918 313 969 b 133 854 182 969 133 918 b 247 742 133 790 182 742 z "},"ò":{"ha":772,"x_min":0,"x_max":0,"o":"m 32 319 b 386 -14 32 128 197 -14 b 740 319 575 -14 740 128 b 386 653 740 511 575 653 b 32 319 197 653 32 511 z m 286 319 b 386 597 286 478 329 597 b 486 319 443 597 486 478 b 386 42 486 161 443 42 b 286 319 329 42 286 161 z m 154 1007 l 451 683 l 418 1007 z "},"ő":{"ha":772,"x_min":0,"x_max":0,"o":"m 32 319 b 386 -14 32 128 197 -14 b 740 319 575 -14 740 128 b 386 653 740 511 575 653 b 32 319 197 653 32 511 z m 286 319 b 386 597 286 478 329 597 b 486 319 443 597 486 478 b 386 42 486 161 443 42 b 286 319 329 42 286 161 z m 506 1007 l 297 1007 l 236 683 z m 742 1007 l 533 1007 l 472 683 z "},"ō":{"ha":772,"x_min":0,"x_max":0,"o":"m 32 319 b 386 -14 32 128 197 -14 b 740 319 575 -14 740 128 b 386 653 740 511 575 653 b 32 319 197 653 32 511 z m 286 319 b 386 597 286 478 329 597 b 486 319 443 597 486 478 b 386 42 486 161 443 42 b 286 319 329 42 286 161 z m 236 893 l 163 782 l 564 782 l 638 893 z "},"ø":{"ha":772,"x_min":0,"x_max":0,"o":"m 32 319 b 149 71 32 218 78 131 l 46 -56 l 136 -56 l 207 32 b 386 -14 260 3 322 -14 b 740 319 575 -14 740 128 b 635 557 740 415 699 499 l 726 671 l 636 671 l 578 600 b 386 653 522 633 456 653 b 32 319 197 653 32 511 z m 286 319 b 386 597 286 478 329 597 b 471 468 424 597 454 547 l 289 244 b 286 319 288 268 286 293 z m 486 319 b 386 42 486 161 443 42 b 306 153 353 42 324 85 l 485 374 b 486 319 486 356 486 338 z "},"ǿ":{"ha":772,"x_min":0,"x_max":0,"o":"m 32 319 b 149 71 32 218 78 131 l 46 -56 l 136 -56 l 207 32 b 386 -14 260 3 322 -14 b 740 319 575 -14 740 128 b 635 557 740 415 699 499 l 726 671 l 636 671 l 578 600 b 386 653 522 633 456 653 b 32 319 197 653 32 511 z m 286 319 b 386 597 286 478 329 597 b 471 468 424 597 454 547 l 289 244 b 286 319 288 268 286 293 z m 486 319 b 386 42 486 161 443 42 b 306 153 353 42 324 85 l 485 374 b 486 319 486 356 486 338 z m 618 1007 l 354 1007 l 321 683 z "},"õ":{"ha":772,"x_min":0,"x_max":0,"o":"m 32 319 b 386 -14 32 128 197 -14 b 740 319 575 -14 740 128 b 386 653 740 511 575 653 b 32 319 197 653 32 511 z m 286 319 b 386 597 286 478 329 597 b 486 319 443 597 486 478 b 386 42 486 161 443 42 b 286 319 329 42 286 161 z m 561 774 l 678 1036 b 501 925 599 971 546 925 l 267 967 l 150 704 b 326 815 229 769 282 815 z "},"œ":{"ha":1171,"x_min":0,"x_max":0,"o":"m 615 551 b 386 653 565 606 492 653 b 32 319 197 653 32 511 b 386 -14 32 128 197 -14 b 614 92 471 -14 561 24 l 640 92 b 854 -14 688 24 772 -14 b 1144 256 1003 -14 1124 92 b 947 167 1100 197 1021 167 b 728 378 826 167 736 250 l 1143 378 b 868 653 1143 522 1040 653 b 644 551 772 653 689 607 z m 286 319 b 386 597 286 478 329 597 b 486 319 443 597 486 478 b 386 42 486 161 443 42 b 286 319 329 42 286 161 z m 833 590 b 929 440 894 590 929 528 l 729 440 b 833 590 739 535 778 590 z "},"ŕ":{"ha":660,"x_min":0,"x_max":0,"o":"m 93 457 l 93 75 l 31 75 l 31 0 l 432 0 l 432 75 l 329 75 l 329 447 l 411 497 l 524 376 b 654 533 583 397 654 450 b 532 653 654 604 603 653 b 343 500 447 653 394 578 l 329 500 l 329 667 l 8 553 z m 550 1007 l 286 1007 l 253 683 z "},"ř":{"ha":660,"x_min":0,"x_max":0,"o":"m 93 457 l 93 75 l 31 75 l 31 0 l 432 0 l 432 75 l 329 75 l 329 447 l 411 497 l 524 376 b 654 533 583 397 654 450 b 532 653 654 604 603 653 b 343 500 447 653 394 578 l 329 500 l 329 667 l 8 553 z m 333 864 l 106 1049 l 244 725 l 422 725 l 561 1049 z "},"ŗ":{"ha":660,"x_min":0,"x_max":0,"o":"m 93 457 l 93 75 l 31 75 l 31 0 l 432 0 l 432 75 l 329 75 l 329 447 l 411 497 l 524 376 b 654 533 583 397 654 450 b 532 653 654 604 603 653 b 343 500 447 653 394 578 l 329 500 l 329 667 l 8 553 z m 79 -165 b 119 -244 79 -199 96 -228 l 224 -244 b 69 -414 214 -308 168 -369 b 343 -206 238 -414 343 -311 b 206 -57 343 -122 292 -57 b 79 -165 132 -57 79 -108 z "},"ś":{"ha":622,"x_min":0,"x_max":0,"o":"m 44 58 b 288 -14 92 18 189 -14 b 579 215 444 -14 579 76 b 253 515 579 443 253 401 b 324 579 253 553 279 579 b 543 401 397 579 464 503 l 543 653 l 456 603 b 300 653 422 629 367 653 b 53 431 163 653 53 554 b 371 126 53 201 371 253 b 290 58 371 79 335 58 b 44 256 208 58 122 140 z m 547 1007 l 283 1007 l 250 683 z "},"š":{"ha":622,"x_min":0,"x_max":0,"o":"m 44 58 b 288 -14 92 18 189 -14 b 579 215 444 -14 579 76 b 253 515 579 443 253 401 b 324 579 253 553 279 579 b 543 401 397 579 464 503 l 543 653 l 456 603 b 300 653 422 629 367 653 b 53 431 163 653 53 554 b 371 126 53 201 371 253 b 290 58 371 79 335 58 b 44 256 208 58 122 140 z m 317 864 l 89 1049 l 228 725 l 406 725 l 544 1049 z "},"ş":{"ha":622,"x_min":0,"x_max":0,"o":"m 44 58 b 265 -14 88 21 175 -10 l 174 -154 b 307 -256 236 -169 307 -200 b 251 -332 307 -292 283 -322 l 178 -225 b 101 -296 138 -225 101 -254 b 200 -371 101 -336 142 -371 b 429 -200 301 -371 429 -292 b 285 -61 429 -128 364 -85 l 288 -14 b 579 215 444 -14 579 76 b 253 515 579 443 253 401 b 324 579 253 553 279 579 b 543 401 397 579 464 503 l 543 653 l 456 603 b 300 653 422 629 367 653 b 53 431 163 653 53 554 b 371 126 53 201 371 253 b 290 58 371 79 335 58 b 44 256 208 58 122 140 z "},"ŝ":{"ha":622,"x_min":0,"x_max":0,"o":"m 44 58 b 288 -14 92 18 189 -14 b 579 215 444 -14 579 76 b 253 515 579 443 253 401 b 324 579 253 553 279 579 b 543 401 397 579 464 503 l 543 653 l 456 603 b 300 653 422 629 367 653 b 53 431 163 653 53 554 b 371 126 53 201 371 253 b 290 58 371 79 335 58 b 44 256 208 58 122 140 z m 317 854 l 544 669 l 406 993 l 228 993 l 89 669 z "},"ș":{"ha":622,"x_min":0,"x_max":0,"o":"m 44 58 b 288 -14 92 18 189 -14 b 579 215 444 -14 579 76 b 253 515 579 443 253 401 b 324 579 253 553 279 579 b 543 401 397 579 464 503 l 543 653 l 456 603 b 300 653 422 629 367 653 b 53 431 163 653 53 554 b 371 126 53 201 371 253 b 290 58 371 79 335 58 b 44 256 208 58 122 140 z m 168 -165 b 208 -244 168 -199 185 -228 l 313 -244 b 158 -414 303 -308 257 -369 b 432 -206 326 -414 432 -311 b 294 -57 432 -122 381 -57 b 168 -165 221 -57 168 -108 z "},"ŧ":{"ha":579,"x_min":0,"x_max":0,"o":"m 17 593 l 106 503 l 103 397 l 51 397 l 18 328 l 101 328 l 97 192 b 308 -14 97 60 193 -14 b 560 199 436 -14 529 63 b 439 142 526 160 485 142 b 332 247 383 142 332 175 l 332 328 l 499 328 l 532 397 l 332 397 l 332 533 l 506 533 l 557 619 l 332 619 l 332 811 z "},"ť":{"ha":533,"x_min":0,"x_max":0,"o":"m -10 593 l 79 503 l 71 192 b 282 -14 71 60 167 -14 b 533 199 410 -14 503 63 b 413 142 500 160 458 142 b 306 247 357 142 306 175 l 306 533 l 479 533 l 531 619 l 306 619 l 306 811 z m 628 1019 l 392 1019 l 358 654 z "},"ţ":{"ha":533,"x_min":0,"x_max":0,"o":"m 194 -371 b 424 -200 296 -371 424 -292 b 279 -61 424 -128 358 -85 l 282 -14 b 533 199 410 -14 503 63 b 413 142 500 160 458 142 b 306 247 357 142 306 175 l 306 533 l 479 533 l 531 619 l 306 619 l 306 811 l -10 593 l 79 503 l 71 192 b 260 -12 71 68 154 -4 l 168 -154 b 301 -256 231 -169 301 -200 b 246 -332 301 -292 278 -322 l 172 -225 b 96 -296 132 -225 96 -254 b 194 -371 96 -336 136 -371 z "},"ț":{"ha":533,"x_min":0,"x_max":0,"o":"m -10 593 l 79 503 l 71 192 b 282 -14 71 60 167 -14 b 533 199 410 -14 503 63 b 413 142 500 160 458 142 b 306 247 357 142 306 175 l 306 533 l 479 533 l 531 619 l 306 619 l 306 811 z m 138 -165 b 178 -244 138 -199 154 -228 l 282 -244 b 128 -414 272 -308 226 -369 b 401 -206 296 -414 401 -311 b 264 -57 401 -122 350 -57 b 138 -165 190 -57 138 -108 z "},"þ":{"ha":819,"x_min":0,"x_max":0,"o":"m 69 875 l 69 -314 l 8 -314 l 8 -389 l 433 -389 l 433 -314 l 306 -314 l 306 11 b 428 -14 336 -3 382 -14 b 788 368 621 -14 788 146 b 529 653 788 514 692 653 b 319 542 433 653 363 600 l 306 542 l 306 1083 l -44 989 z m 306 126 l 306 514 b 350 522 318 519 333 522 b 556 271 465 522 556 435 b 407 49 556 143 496 49 b 306 126 357 49 322 85 z "},"ú":{"ha":825,"x_min":0,"x_max":0,"o":"m 496 -14 l 817 58 l 732 154 l 732 644 l 421 617 l 421 542 l 496 542 l 496 122 b 439 115 478 118 460 115 b 324 249 360 115 324 168 l 324 644 l 21 617 l 21 542 l 88 542 l 88 190 b 279 -14 88 74 163 -14 b 482 93 371 -14 429 36 l 496 93 z m 653 1007 l 389 1007 l 356 683 z "},"ŭ":{"ha":825,"x_min":0,"x_max":0,"o":"m 496 -14 l 817 58 l 732 154 l 732 644 l 421 617 l 421 542 l 496 542 l 496 122 b 439 115 478 118 460 115 b 324 249 360 115 324 168 l 324 644 l 21 617 l 21 542 l 88 542 l 88 190 b 279 -14 88 74 163 -14 b 482 93 371 -14 429 36 l 496 93 z m 407 871 b 225 1067 339 871 276 918 b 407 711 197 883 282 711 b 589 1067 532 711 617 883 b 407 871 538 918 475 871 z "},"û":{"ha":825,"x_min":0,"x_max":0,"o":"m 496 -14 l 817 58 l 732 154 l 732 644 l 421 617 l 421 542 l 496 542 l 496 122 b 439 115 478 118 460 115 b 324 249 360 115 324 168 l 324 644 l 21 617 l 21 542 l 88 542 l 88 190 b 279 -14 88 74 163 -14 b 482 93 371 -14 429 36 l 496 93 z m 408 854 l 636 669 l 497 993 l 319 993 l 181 669 z "},"ü":{"ha":825,"x_min":0,"x_max":0,"o":"m 496 -14 l 817 58 l 732 154 l 732 644 l 421 617 l 421 542 l 496 542 l 496 122 b 439 115 478 118 460 115 b 324 249 360 115 324 168 l 324 644 l 21 617 l 21 542 l 88 542 l 88 190 b 279 -14 88 74 163 -14 b 482 93 371 -14 429 36 l 496 93 z m 549 742 b 663 854 614 742 663 790 b 549 969 663 918 614 969 b 435 854 483 969 435 918 b 549 742 435 790 483 742 z m 271 742 b 385 854 336 742 385 790 b 271 969 385 918 336 969 b 157 854 206 969 157 918 b 271 742 157 790 206 742 z "},"ù":{"ha":825,"x_min":0,"x_max":0,"o":"m 496 -14 l 817 58 l 732 154 l 732 644 l 421 617 l 421 542 l 496 542 l 496 122 b 439 115 478 118 460 115 b 324 249 360 115 324 168 l 324 644 l 21 617 l 21 542 l 88 542 l 88 190 b 279 -14 88 74 163 -14 b 482 93 371 -14 429 36 l 496 93 z m 182 1007 l 479 683 l 446 1007 z "},"ű":{"ha":825,"x_min":0,"x_max":0,"o":"m 496 -14 l 817 58 l 732 154 l 732 644 l 421 617 l 421 542 l 496 542 l 496 122 b 439 115 478 118 460 115 b 324 249 360 115 324 168 l 324 644 l 21 617 l 21 542 l 88 542 l 88 190 b 279 -14 88 74 163 -14 b 482 93 371 -14 429 36 l 496 93 z m 519 1007 l 311 1007 l 250 683 z m 756 1007 l 547 1007 l 486 683 z "},"ū":{"ha":825,"x_min":0,"x_max":0,"o":"m 496 -14 l 817 58 l 732 154 l 732 644 l 421 617 l 421 542 l 496 542 l 496 122 b 439 115 478 118 460 115 b 324 249 360 115 324 168 l 324 644 l 21 617 l 21 542 l 88 542 l 88 190 b 279 -14 88 74 163 -14 b 482 93 371 -14 429 36 l 496 93 z m 258 893 l 185 782 l 586 782 l 660 893 z "},"ų":{"ha":825,"x_min":0,"x_max":0,"o":"m 600 -261 l 542 -261 b 451 -169 486 -261 451 -221 b 604 11 451 -92 507 -11 l 817 58 l 732 154 l 732 644 l 421 617 l 421 542 l 496 542 l 496 122 b 439 115 478 118 460 115 b 324 249 360 115 324 168 l 324 644 l 21 617 l 21 542 l 88 542 l 88 190 b 279 -14 88 74 163 -14 b 482 93 371 -14 429 36 l 496 93 l 496 -3 b 306 -261 394 -76 306 -169 b 418 -375 306 -336 357 -375 b 600 -261 492 -375 556 -324 z "},"ů":{"ha":825,"x_min":0,"x_max":0,"o":"m 496 -14 l 817 58 l 732 154 l 732 644 l 421 617 l 421 542 l 496 542 l 496 122 b 439 115 478 118 460 115 b 324 249 360 115 324 168 l 324 644 l 21 617 l 21 542 l 88 542 l 88 190 b 279 -14 88 74 163 -14 b 482 93 371 -14 429 36 l 496 93 z m 394 1021 b 242 868 311 1021 242 951 b 394 715 242 785 311 715 b 547 868 478 715 547 785 b 394 1021 547 951 478 1021 z m 394 953 b 479 868 442 953 479 915 b 394 783 479 821 442 783 b 310 868 347 783 310 821 b 394 953 310 915 347 953 z "},"ũ":{"ha":825,"x_min":0,"x_max":0,"o":"m 496 -14 l 817 58 l 732 154 l 732 644 l 421 617 l 421 542 l 496 542 l 496 122 b 439 115 478 118 460 115 b 324 249 360 115 324 168 l 324 644 l 21 617 l 21 542 l 88 542 l 88 190 b 279 -14 88 74 163 -14 b 482 93 371 -14 429 36 l 496 93 z m 575 774 l 692 1036 b 515 925 613 971 560 925 l 281 967 l 164 704 b 340 815 243 769 296 815 z "},"ẃ":{"ha":1088,"x_min":0,"x_max":0,"o":"m 933 564 l 811 289 l 690 564 l 767 564 l 767 639 l 426 639 l 426 564 l 469 564 l 513 467 l 431 286 l 310 564 l 371 564 l 371 639 l 7 639 l 7 564 l 67 564 l 354 -42 l 549 385 l 736 -42 l 1022 564 l 1081 564 l 1081 639 l 822 639 l 822 564 z m 860 1007 l 596 1007 l 563 683 z "},"ŵ":{"ha":1088,"x_min":0,"x_max":0,"o":"m 933 564 l 811 289 l 690 564 l 767 564 l 767 639 l 426 639 l 426 564 l 469 564 l 513 467 l 431 286 l 310 564 l 371 564 l 371 639 l 7 639 l 7 564 l 67 564 l 354 -42 l 549 385 l 736 -42 l 1022 564 l 1081 564 l 1081 639 l 822 639 l 822 564 z m 546 854 l 774 669 l 635 993 l 457 993 l 318 669 z "},"ẁ":{"ha":1088,"x_min":0,"x_max":0,"o":"m 933 564 l 811 289 l 690 564 l 767 564 l 767 639 l 426 639 l 426 564 l 469 564 l 513 467 l 431 286 l 310 564 l 371 564 l 371 639 l 7 639 l 7 564 l 67 564 l 354 -42 l 549 385 l 736 -42 l 1022 564 l 1081 564 l 1081 639 l 822 639 l 822 564 z m 319 1007 l 617 683 l 583 1007 z "},"ẅ":{"ha":1088,"x_min":0,"x_max":0,"o":"m 933 564 l 811 289 l 690 564 l 767 564 l 767 639 l 426 639 l 426 564 l 469 564 l 513 467 l 431 286 l 310 564 l 371 564 l 371 639 l 7 639 l 7 564 l 67 564 l 354 -42 l 549 385 l 736 -42 l 1022 564 l 1081 564 l 1081 639 l 822 639 l 822 564 z m 699 742 b 813 854 764 742 813 790 b 699 969 813 918 764 969 b 585 854 633 969 585 918 b 699 742 585 790 633 742 z m 421 742 b 535 854 486 742 535 790 b 421 969 535 918 486 969 b 307 854 356 969 307 918 b 421 742 307 790 356 742 z "},"ý":{"ha":769,"x_min":0,"x_max":0,"o":"m 613 564 l 461 233 l 322 564 l 424 564 l 424 639 l 7 639 l 7 564 l 67 564 l 332 -18 l 210 -254 l 29 -185 b -14 -285 0 -214 -14 -250 b 111 -403 -14 -347 32 -403 b 304 -242 206 -403 264 -324 l 704 564 l 763 564 l 763 639 l 499 639 l 499 564 z m 706 1007 l 442 1007 l 408 683 z "},"ŷ":{"ha":769,"x_min":0,"x_max":0,"o":"m 613 564 l 461 233 l 322 564 l 424 564 l 424 639 l 7 639 l 7 564 l 67 564 l 332 -18 l 210 -254 l 29 -185 b -14 -285 0 -214 -14 -250 b 111 -403 -14 -347 32 -403 b 304 -242 206 -403 264 -324 l 704 564 l 763 564 l 763 639 l 499 639 l 499 564 z m 421 854 l 649 669 l 510 993 l 332 993 l 193 669 z "},"ÿ":{"ha":769,"x_min":0,"x_max":0,"o":"m 613 564 l 461 233 l 322 564 l 424 564 l 424 639 l 7 639 l 7 564 l 67 564 l 332 -18 l 210 -254 l 29 -185 b -14 -285 0 -214 -14 -250 b 111 -403 -14 -347 32 -403 b 304 -242 206 -403 264 -324 l 704 564 l 763 564 l 763 639 l 499 639 l 499 564 z m 572 742 b 686 854 638 742 686 790 b 572 969 686 918 638 969 b 458 854 507 969 458 918 b 572 742 458 790 507 742 z m 294 742 b 408 854 360 742 408 790 b 294 969 408 918 360 969 b 181 854 229 969 181 918 b 294 742 181 790 229 742 z "},"ỳ":{"ha":769,"x_min":0,"x_max":0,"o":"m 613 564 l 461 233 l 322 564 l 424 564 l 424 639 l 7 639 l 7 564 l 67 564 l 332 -18 l 210 -254 l 29 -185 b -14 -285 0 -214 -14 -250 b 111 -403 -14 -347 32 -403 b 304 -242 206 -403 264 -324 l 704 564 l 763 564 l 763 639 l 499 639 l 499 564 z m 193 1007 l 490 683 l 457 1007 z "},"ź":{"ha":715,"x_min":0,"x_max":0,"o":"m 324 75 l 690 639 l 158 639 l 108 694 l 36 390 l 240 564 l 386 564 l 11 0 l 650 0 l 697 292 l 511 75 z m 601 1007 l 338 1007 l 304 683 z "},"ž":{"ha":715,"x_min":0,"x_max":0,"o":"m 324 75 l 690 639 l 158 639 l 108 694 l 36 390 l 240 564 l 386 564 l 11 0 l 650 0 l 697 292 l 511 75 z m 371 864 l 143 1049 l 282 725 l 460 725 l 599 1049 z "},"ż":{"ha":715,"x_min":0,"x_max":0,"o":"m 324 75 l 690 639 l 158 639 l 108 694 l 36 390 l 240 564 l 386 564 l 11 0 l 650 0 l 697 292 l 511 75 z m 371 742 b 499 871 442 742 499 800 b 371 1000 499 942 442 1000 b 243 871 300 1000 243 942 b 371 742 243 800 300 742 z "},"º":{"ha":599,"x_min":0,"x_max":0,"o":"m 39 728 b 299 486 39 589 160 486 b 560 728 439 486 560 589 b 299 971 560 867 439 971 b 39 728 160 971 39 867 z m 239 728 b 299 931 239 843 264 931 b 360 728 335 931 360 843 b 299 526 360 614 335 526 b 239 728 264 526 239 614 z m 129 413 l 97 339 l 469 339 l 501 413 z "},"ª":{"ha":586,"x_min":0,"x_max":0,"o":"m 285 797 l 285 768 l 183 726 b 36 588 97 692 36 658 b 150 488 36 529 88 488 b 278 569 215 488 254 529 l 286 569 b 411 486 307 522 351 486 b 547 618 488 486 547 542 b 508 594 539 603 522 594 b 472 639 488 594 472 611 l 472 810 b 324 969 472 906 417 969 b 39 775 203 969 69 886 l 186 775 l 186 899 b 285 797 253 899 285 869 z m 285 724 l 285 589 b 261 586 278 586 268 586 b 208 640 233 586 208 603 b 271 717 208 679 231 699 z m 115 413 l 83 339 l 456 339 l 488 413 z "},"ﬀ":{"ha":932,"x_min":0,"x_max":0,"o":"m 93 75 l 31 75 l 31 0 l 390 0 l 390 75 l 329 75 l 329 533 l 524 533 l 524 75 l 461 75 l 461 0 l 863 0 l 863 75 l 760 75 l 760 533 l 906 533 l 957 619 l 760 619 b 885 1017 760 797 804 961 l 1039 849 b 1149 978 1106 868 1149 908 b 996 1083 1149 1035 1099 1083 b 524 639 801 1083 554 896 l 524 619 l 329 619 b 403 1000 329 797 344 946 l 508 861 b 614 974 569 879 613 917 b 499 1069 615 1025 579 1069 b 93 639 328 1069 133 892 l -6 568 l 93 471 z "},"ﬁ":{"ha":840,"x_min":0,"x_max":0,"o":"m 93 75 l 31 75 l 31 0 l 390 0 l 390 75 l 329 75 l 329 533 l 524 533 l 524 75 l 461 75 l 461 0 l 821 0 l 821 75 l 760 75 l 760 667 l 626 619 l 329 619 b 454 1017 329 797 374 961 l 608 849 b 718 978 675 868 718 908 b 565 1083 718 1035 668 1083 b 93 639 371 1083 124 896 l -6 568 l 93 471 z "},"ﬃ":{"ha":1271,"x_min":0,"x_max":0,"o":"m 524 75 l 461 75 l 461 0 l 821 0 l 821 75 l 760 75 l 760 533 l 954 533 l 954 75 l 892 75 l 892 0 l 1251 0 l 1251 75 l 1190 75 l 1190 667 l 1057 619 l 760 619 b 885 1017 760 797 804 961 l 1039 849 b 1149 978 1106 868 1149 908 b 996 1083 1149 1035 1099 1083 b 524 639 801 1083 554 896 l 524 619 l 329 619 b 403 1000 329 797 344 946 l 508 861 b 614 974 569 879 613 917 b 499 1069 615 1025 579 1069 b 93 639 328 1069 133 892 l -6 568 l 93 471 l 93 75 l 31 75 l 31 0 l 390 0 l 390 75 l 329 75 l 329 533 l 524 533 z "},"ﬂ":{"ha":840,"x_min":0,"x_max":0,"o":"m 499 619 l 329 619 b 496 1011 329 828 374 1011 b 524 1008 506 1011 513 1011 l 524 75 l 461 75 l 461 0 l 822 0 l 822 75 l 760 75 l 760 1056 b 558 1083 706 1072 624 1083 b 93 639 285 1083 124 872 l -6 568 l 93 471 l 93 75 l 31 75 l 31 0 l 392 0 l 392 75 l 329 75 l 329 533 l 447 533 z "},"ﬄ":{"ha":1271,"x_min":0,"x_max":0,"o":"m 954 75 l 892 75 l 892 0 l 1253 0 l 1253 75 l 1190 75 l 1190 1056 b 989 1083 1136 1072 1054 1083 b 524 639 715 1083 554 872 l 524 619 l 329 619 b 403 1000 329 797 344 946 l 508 861 b 614 974 569 879 613 917 b 499 1069 615 1025 579 1069 b 93 639 328 1069 133 892 l -6 568 l 93 471 l 93 75 l 31 75 l 31 0 l 390 0 l 390 75 l 329 75 l 329 533 l 524 533 l 524 75 l 461 75 l 461 0 l 822 0 l 822 75 l 760 75 l 760 533 l 878 533 l 929 619 l 760 619 b 926 1011 760 828 804 1011 b 954 1008 936 1011 943 1011 z "},"&":{"ha":1228,"x_min":0,"x_max":0,"o":"m 1132 0 l 868 283 b 1075 601 946 378 1015 488 l 1214 601 l 1214 678 l 831 678 l 831 601 l 958 601 l 958 574 b 814 342 918 486 869 407 l 578 594 l 578 613 b 775 785 667 629 775 681 b 515 972 775 897 657 972 b 228 726 347 972 228 863 b 299 549 228 653 257 599 l 299 518 b 56 254 172 479 56 396 b 372 -14 56 86 207 -14 b 706 119 490 -14 603 36 l 818 0 z m 425 824 b 517 914 425 875 461 914 b 617 790 578 914 617 867 b 547 626 617 728 596 661 b 425 824 475 704 425 765 z m 281 361 b 336 507 281 426 300 469 b 406 436 358 483 382 461 l 633 196 b 496 163 589 174 543 163 b 281 361 372 163 281 238 z "},"`":{"ha":694,"x_min":0,"x_max":0,"o":"m 199 1007 l 496 683 l 463 1007 z "},"´":{"ha":694,"x_min":0,"x_max":0,"o":"m 496 1007 l 232 1007 l 199 683 z "},"ˆ":{"ha":694,"x_min":0,"x_max":0,"o":"m 347 854 l 575 669 l 436 993 l 258 993 l 119 669 z "},"˜":{"ha":694,"x_min":0,"x_max":0,"o":"m 494 774 l 611 1036 b 435 925 532 971 479 925 l 200 967 l 83 704 b 260 815 163 769 215 815 z "},"¯":{"ha":694,"x_min":0,"x_max":0,"o":"m 183 893 l 110 782 l 511 782 l 585 893 z "},"˘":{"ha":694,"x_min":0,"x_max":0,"o":"m 347 871 b 165 1067 279 871 217 918 b 347 711 138 883 222 711 b 529 1067 472 711 557 883 b 347 871 478 918 415 871 z "},"˙":{"ha":694,"x_min":0,"x_max":0,"o":"m 347 742 b 475 871 418 742 475 800 b 347 1000 475 942 418 1000 b 219 871 276 1000 219 942 b 347 742 219 800 276 742 z "},"¨":{"ha":694,"x_min":0,"x_max":0,"o":"m 486 742 b 600 854 551 742 600 790 b 486 969 600 918 551 969 b 372 854 421 969 372 918 b 486 742 372 790 421 742 z m 208 742 b 322 854 274 742 322 790 b 208 969 322 918 274 969 b 94 854 143 969 94 918 b 208 742 94 790 143 742 z "},"˚":{"ha":694,"x_min":0,"x_max":0,"o":"m 347 1021 b 194 868 264 1021 194 951 b 347 715 194 785 264 715 b 500 868 431 715 500 785 b 347 1021 500 951 431 1021 z m 347 953 b 432 868 394 953 432 915 b 347 783 432 821 394 783 b 263 868 300 783 263 821 b 347 953 263 915 300 953 z "},"˝":{"ha":694,"x_min":0,"x_max":0,"o":"m 364 1007 l 156 1007 l 94 683 z m 600 1007 l 392 1007 l 331 683 z "},"ˇ":{"ha":694,"x_min":0,"x_max":0,"o":"m 347 864 l 119 1049 l 258 725 l 436 725 l 575 1049 z "},"":{"ha":694,"x_min":0,"x_max":0,"o":"m 219 -165 b 260 -244 219 -199 236 -228 l 364 -244 b 210 -414 354 -308 308 -369 b 483 -206 378 -414 483 -311 b 346 -57 483 -122 432 -57 b 219 -165 272 -57 219 -108 z "},"¸":{"ha":694,"x_min":0,"x_max":0,"o":"m 282 -371 b 511 -200 383 -371 511 -292 b 367 -61 511 -128 446 -85 l 372 25 l 256 -154 b 389 -256 318 -169 389 -200 b 333 -332 389 -292 365 -322 l 260 -225 b 183 -296 219 -225 183 -254 b 282 -371 183 -336 224 -371 z "},"˛":{"ha":694,"x_min":0,"x_max":0,"o":"m 454 38 b 201 -261 329 -37 201 -161 b 314 -375 201 -336 253 -375 b 496 -261 388 -375 451 -324 l 440 -261 b 350 -181 385 -261 350 -232 b 464 19 350 -119 388 -46 z "},".":{"ha":408,"x_min":0,"x_max":0,"o":"m 353 133 b 203 285 353 215 292 285 b 56 133 118 285 56 215 b 203 -12 56 53 118 -12 b 353 133 292 -12 353 53 z "},",":{"ha":408,"x_min":0,"x_max":0,"o":"m 46 150 b 101 44 46 101 72 64 l 200 44 b 219 -6 213 36 219 19 b 39 -254 219 -97 135 -190 b 364 76 175 -254 364 -118 b 193 285 364 196 303 285 b 46 150 114 285 46 224 z "},":":{"ha":408,"x_min":0,"x_max":0,"o":"m 353 133 b 203 285 353 215 292 285 b 56 133 118 285 56 215 b 203 -12 56 53 118 -12 b 353 133 292 -12 353 53 z m 353 501 b 203 653 353 583 292 653 b 56 501 118 653 56 583 b 203 356 56 421 118 356 b 353 501 292 356 353 421 z "},";":{"ha":408,"x_min":0,"x_max":0,"o":"m 46 150 b 101 44 46 101 72 64 l 200 44 b 219 -6 213 36 219 19 b 39 -254 219 -97 135 -190 b 364 76 175 -254 364 -118 b 193 285 364 196 303 285 b 46 150 114 285 46 224 z m 353 501 b 203 653 353 583 292 653 b 56 501 118 653 56 583 b 203 356 56 421 118 356 b 353 501 292 356 353 421 z "},"…":{"ha":1131,"x_min":0,"x_max":0,"o":"m 1075 133 b 925 285 1075 215 1014 285 b 778 133 840 285 778 215 b 925 -12 778 53 840 -12 b 1075 133 1014 -12 1075 53 z m 714 133 b 564 285 714 215 653 285 b 417 133 479 285 417 215 b 564 -12 417 53 479 -12 b 714 133 653 -12 714 53 z m 353 133 b 203 285 353 215 292 285 b 56 133 118 285 56 215 b 203 -12 56 53 118 -12 b 353 133 292 -12 353 53 z "},"!":{"ha":447,"x_min":0,"x_max":0,"o":"m 388 804 b 224 972 388 904 310 972 b 60 804 138 972 60 904 l 224 328 z m 372 133 b 222 285 372 215 311 285 b 75 133 138 285 75 215 b 222 -12 75 53 138 -12 b 372 133 311 -12 372 53 z "},"¡":{"ha":447,"x_min":0,"x_max":0,"o":"m 388 156 l 224 632 l 60 156 b 224 -12 60 56 138 -12 b 388 156 310 -12 388 56 z m 372 826 b 222 972 372 907 311 972 b 75 826 138 972 75 907 b 222 675 75 744 138 675 b 372 826 311 675 372 744 z "},"?":{"ha":697,"x_min":0,"x_max":0,"o":"m 276 918 b 432 756 378 903 432 829 b 163 529 432 646 332 558 l 313 338 b 656 671 531 396 656 503 b 267 972 656 838 488 972 b 28 825 125 972 28 910 b 163 706 28 761 92 706 z m 461 133 b 311 285 461 215 400 285 b 164 133 226 285 164 215 b 311 -12 164 53 226 -12 b 461 133 400 -12 461 53 z "},"¿":{"ha":697,"x_min":0,"x_max":0,"o":"m 421 42 b 265 204 319 57 265 131 b 535 431 265 314 365 401 l 385 622 b 42 289 167 564 42 457 b 431 -12 42 122 210 -12 b 669 135 572 -12 669 50 b 535 254 669 199 606 254 z m 236 826 b 386 675 236 744 297 675 b 533 826 471 675 533 744 b 386 972 533 907 471 972 b 236 826 297 972 236 907 z "},"‘":{"ha":408,"x_min":0,"x_max":0,"o":"m 360 693 b 304 799 360 742 333 779 l 211 799 b 192 851 199 807 192 826 b 367 1069 192 943 271 1019 b 42 763 213 1069 42 943 b 213 558 42 643 111 558 b 360 693 292 558 360 619 z "},"’":{"ha":408,"x_min":0,"x_max":0,"o":"m 49 928 b 104 822 49 879 75 842 l 197 822 b 217 769 210 814 217 794 b 42 551 217 678 138 601 b 367 858 196 551 367 678 b 196 1063 367 978 297 1063 b 49 928 117 1063 49 1001 z "},"“":{"ha":781,"x_min":0,"x_max":0,"o":"m 732 693 b 676 799 732 742 706 779 l 583 799 b 564 851 571 807 564 826 b 739 1069 564 943 643 1019 b 414 763 585 1069 414 943 b 585 558 414 643 483 558 b 732 693 664 558 732 619 z m 360 693 b 304 799 360 742 333 779 l 211 799 b 192 851 199 807 192 826 b 367 1069 192 943 271 1019 b 42 763 213 1069 42 943 b 213 558 42 643 111 558 b 360 693 292 558 360 619 z "},"”":{"ha":781,"x_min":0,"x_max":0,"o":"m 421 928 b 476 822 421 879 447 842 l 569 822 b 589 769 582 814 589 794 b 414 551 589 678 510 601 b 739 858 568 551 739 678 b 568 1063 739 978 669 1063 b 421 928 489 1063 421 1001 z m 49 928 b 104 822 49 879 75 842 l 197 822 b 217 769 210 814 217 794 b 42 551 217 678 138 601 b 367 858 196 551 367 678 b 196 1063 367 978 297 1063 b 49 928 117 1063 49 1001 z "},"‚":{"ha":408,"x_min":0,"x_max":0,"o":"m 49 131 b 104 25 49 82 75 44 l 197 25 b 217 -28 210 17 217 -3 b 42 -246 217 -119 138 -196 b 367 61 196 -246 367 -119 b 196 265 367 181 297 265 b 49 131 117 265 49 204 z "},"„":{"ha":781,"x_min":0,"x_max":0,"o":"m 421 131 b 476 25 421 82 447 44 l 569 25 b 589 -28 582 17 589 -3 b 414 -246 589 -119 510 -196 b 739 61 568 -246 739 -119 b 568 265 739 181 669 265 b 421 131 489 265 421 204 z m 49 131 b 104 25 49 82 75 44 l 197 25 b 217 -28 210 17 217 -3 b 42 -246 217 -119 138 -196 b 367 61 196 -246 367 -119 b 196 265 367 181 297 265 b 49 131 117 265 49 204 z "},"‹":{"ha":472,"x_min":0,"x_max":0,"o":"m 56 326 l 417 17 l 299 326 l 417 633 z "},"›":{"ha":472,"x_min":0,"x_max":0,"o":"m 417 326 l 56 633 l 174 326 l 56 17 z "},"«":{"ha":792,"x_min":0,"x_max":0,"o":"m 375 326 l 736 17 l 618 326 l 736 633 z m 56 326 l 417 17 l 299 326 l 417 633 z "},"»":{"ha":792,"x_min":0,"x_max":0,"o":"m 417 326 l 56 633 l 174 326 l 56 17 z m 736 326 l 375 633 l 493 326 l 375 17 z "},"/":{"ha":756,"x_min":0,"x_max":0,"o":"m 613 1069 l 56 -201 l 143 -201 l 700 1069 z "},"\\":{"ha":756,"x_min":0,"x_max":0,"o":"m 143 1069 l 56 1069 l 613 -201 l 700 -201 z "},"|":{"ha":474,"x_min":0,"x_max":0,"o":"m 279 1069 l 194 1069 l 194 -201 l 279 -201 z "},"·":{"ha":408,"x_min":0,"x_max":0,"o":"m 353 353 b 203 504 353 435 292 504 b 56 353 118 504 56 435 b 203 207 56 272 118 207 b 353 353 292 207 353 272 z "},"•":{"ha":597,"x_min":0,"x_max":0,"o":"m 299 597 b 56 354 165 597 56 489 b 299 111 56 221 165 111 b 542 354 433 111 542 221 b 299 597 542 489 433 597 z "},"-":{"ha":542,"x_min":0,"x_max":0,"o":"m 482 433 l 103 433 l 60 283 l 439 283 z "},"–":{"ha":822,"x_min":0,"x_max":0,"o":"m 90 414 l 56 290 l 732 290 l 767 414 z "},"—":{"ha":1364,"x_min":0,"x_max":0,"o":"m 90 414 l 56 290 l 1274 290 l 1308 414 z "},"(":{"ha":563,"x_min":0,"x_max":0,"o":"m 69 396 b 521 -246 69 94 292 -135 b 322 396 397 -69 322 125 b 521 1038 322 667 397 861 b 69 396 292 926 69 697 z "},")":{"ha":563,"x_min":0,"x_max":0,"o":"m 493 396 b 42 1038 493 697 271 926 b 240 396 165 861 240 667 b 42 -246 240 125 165 -69 b 493 396 271 -135 493 94 z "},"[":{"ha":604,"x_min":0,"x_max":0,"o":"m 139 -229 l 535 -229 l 535 -158 l 354 -158 l 354 957 l 535 957 l 535 1028 l 139 1028 z "},"]":{"ha":604,"x_min":0,"x_max":0,"o":"m 465 -229 l 465 1028 l 69 1028 l 69 957 l 250 957 l 250 -158 l 69 -158 l 69 -229 z "},"{":{"ha":578,"x_min":0,"x_max":0,"o":"m 28 397 b 258 261 129 378 258 353 b 121 -43 258 163 121 74 b 351 -233 121 -149 219 -233 b 550 -186 421 -233 503 -214 b 376 -36 451 -179 376 -136 b 413 232 376 57 413 147 b 172 397 413 340 253 383 b 413 563 253 411 413 454 b 376 831 413 647 376 739 b 550 981 376 931 451 974 b 351 1028 503 1008 421 1028 b 121 838 219 1028 121 943 b 258 533 121 721 258 632 b 28 397 258 442 129 417 z "},"}":{"ha":578,"x_min":0,"x_max":0,"o":"m 550 397 b 319 533 449 417 319 442 b 457 838 319 632 457 721 b 226 1028 457 943 358 1028 b 28 981 157 1028 75 1008 b 201 831 126 974 201 931 b 165 563 201 739 165 647 b 406 397 165 454 325 411 b 165 232 325 383 165 340 b 201 -36 165 147 201 57 b 28 -186 201 -136 126 -179 b 226 -233 75 -214 157 -233 b 457 -43 358 -233 457 -149 b 319 261 457 74 319 163 b 550 397 319 353 449 378 z "},"*":{"ha":653,"x_min":0,"x_max":0,"o":"m 597 642 l 449 797 l 597 953 l 388 903 l 326 1110 l 265 903 l 56 953 l 204 797 l 56 642 l 265 692 l 326 485 l 388 692 z "},"†":{"ha":656,"x_min":0,"x_max":0,"o":"m 558 896 l 378 896 l 378 1069 l 278 1069 l 278 896 l 97 896 l 97 796 l 278 796 l 278 456 l 378 456 l 378 796 l 558 796 z "},"‡":{"ha":656,"x_min":0,"x_max":0,"o":"m 558 701 l 378 701 l 378 824 l 558 824 l 558 924 l 378 924 l 378 1069 l 278 1069 l 278 924 l 97 924 l 97 824 l 278 824 l 278 701 l 97 701 l 97 601 l 278 601 l 278 456 l 378 456 l 378 601 l 558 601 z "},"§":{"ha":704,"x_min":0,"x_max":0,"o":"m 310 -208 b 249 -199 290 -208 267 -207 l 249 -51 b 111 -154 183 -51 111 -76 b 293 -281 111 -236 196 -281 b 606 60 490 -281 606 -114 b 535 301 606 144 579 213 l 258 847 b 393 900 294 881 340 900 b 454 890 413 900 436 899 l 454 743 b 592 846 519 743 592 768 b 410 972 592 928 507 972 b 97 632 213 972 97 806 b 168 390 97 547 124 479 l 444 -156 b 310 -208 408 -189 363 -208 z m 228 447 b 175 643 194 515 175 574 b 210 785 175 693 188 743 l 475 244 b 528 49 508 176 528 118 b 493 -93 528 -1 515 -51 z "},"¶":{"ha":881,"x_min":0,"x_max":0,"o":"m 460 958 b 83 635 263 958 83 826 b 460 311 83 443 263 311 l 460 881 l 561 881 l 561 -12 b 383 -218 561 -156 489 -218 b 232 -76 294 -218 232 -156 b 346 50 232 0 283 50 l 346 -83 b 474 15 403 -83 474 -60 b 349 118 474 78 424 118 b 158 -78 244 118 158 31 b 383 -286 158 -201 264 -286 b 642 -18 526 -286 642 -178 l 642 881 l 813 881 l 813 958 z "},"^":{"ha":628,"x_min":0,"x_max":0,"o":"m 314 722 l 572 481 l 389 901 b 314 963 374 936 351 963 b 239 901 276 963 254 936 l 56 481 z "},"~":{"ha":644,"x_min":0,"x_max":0,"o":"m 467 260 l 589 536 b 413 425 510 471 457 425 l 178 467 l 56 190 b 232 301 135 256 188 301 z "},"_":{"ha":615,"x_min":0,"x_max":0,"o":"m 560 -62 l 111 -62 l 65 -185 l 514 -185 z "},"'":{"ha":339,"x_min":0,"x_max":0,"o":"m 169 521 l 297 929 b 169 1056 297 997 246 1056 b 42 929 93 1056 42 997 z "},"\"":{"ha":642,"x_min":0,"x_max":0,"o":"m 472 521 l 600 929 b 472 1056 600 997 549 1056 b 344 929 396 1056 344 997 z m 169 521 l 297 929 b 169 1056 297 997 246 1056 b 42 929 93 1056 42 997 z "},"@":{"ha":1275,"x_min":0,"x_max":0,"o":"m 907 71 l 907 432 b 721 631 907 553 836 631 b 360 385 571 631 400 525 l 557 385 l 557 544 b 682 411 649 544 682 503 l 682 367 l 547 311 b 357 129 438 268 357 221 b 503 0 357 53 424 0 b 671 104 586 0 639 56 l 683 104 b 872 0 710 44 774 0 b 1233 408 1057 0 1233 169 b 707 882 1233 651 1042 882 b 42 240 314 882 42 567 b 654 -328 42 -157 372 -328 b 1147 -118 857 -328 1033 -244 b 728 -228 1022 -186 869 -228 b 189 272 464 -228 189 -65 b 694 801 189 560 401 801 b 1096 413 975 801 1096 594 b 907 71 1096 240 1026 103 z m 682 310 l 682 133 b 638 122 669 125 653 122 b 567 194 600 122 567 146 b 656 299 567 247 599 274 z "},"©":{"ha":1140,"x_min":0,"x_max":0,"o":"m 83 479 b 571 -14 83 210 303 -14 b 1057 479 838 -14 1057 210 b 571 972 1057 749 838 972 b 83 479 303 972 83 749 z m 139 479 b 571 918 139 719 333 918 b 1001 479 807 918 1001 719 b 571 39 1001 238 807 39 b 139 479 333 39 139 238 z m 833 381 b 665 308 783 332 721 308 b 451 532 558 308 451 390 b 596 729 451 653 511 729 b 806 513 688 729 750 613 l 806 789 l 717 757 b 593 789 678 776 651 789 b 271 467 429 789 271 657 b 567 179 271 281 421 179 b 833 381 703 179 792 272 z "},"®":{"ha":724,"x_min":0,"x_max":0,"o":"m 69 678 b 363 388 69 519 190 388 b 654 678 532 388 654 519 b 363 972 654 840 532 972 b 69 678 190 972 69 840 z m 119 678 b 363 922 119 814 219 922 b 604 678 503 922 604 814 b 363 438 604 546 503 438 b 119 678 219 438 119 546 z m 367 576 l 326 576 l 326 671 l 347 671 l 431 542 l 526 542 l 431 679 b 500 753 468 692 500 715 b 379 832 500 807 450 832 l 213 832 l 213 797 l 247 797 l 247 576 l 213 576 l 213 542 l 367 542 z m 326 797 l 350 797 b 413 747 382 797 413 786 b 354 694 413 713 386 694 l 326 694 z "},"™":{"ha":1261,"x_min":0,"x_max":0,"o":"m 103 958 l 69 976 l 69 760 l 174 908 l 224 908 l 224 582 l 139 582 l 139 526 l 443 526 l 443 582 l 357 582 l 357 908 l 408 908 l 511 760 l 511 976 l 478 958 z m 985 582 l 914 582 l 914 526 l 1178 526 l 1178 582 l 1122 582 l 1090 901 l 1147 901 l 1147 958 l 926 958 l 860 771 l 793 958 l 568 958 l 568 901 l 625 901 l 593 582 l 538 582 l 538 526 l 722 526 l 722 582 l 651 582 l 679 878 l 818 500 l 956 878 z "},"#":{"ha":944,"x_min":0,"x_max":0,"o":"m 113 0 l 199 0 l 290 261 l 500 261 l 408 0 l 494 0 l 586 261 l 792 261 l 792 343 l 615 343 l 711 615 l 875 615 l 875 697 l 740 697 l 832 958 l 746 958 l 654 697 l 444 697 l 536 958 l 450 958 l 358 697 l 153 697 l 153 615 l 329 615 l 233 343 l 69 343 l 69 261 l 204 261 z m 319 343 l 415 615 l 625 615 l 529 343 z "},"°":{"ha":449,"x_min":0,"x_max":0,"o":"m 225 578 b 421 775 333 578 421 667 b 225 972 421 883 333 972 b 28 775 117 972 28 883 b 225 578 28 667 117 578 z m 225 654 b 104 775 158 654 104 708 b 225 896 104 842 158 896 b 344 775 292 896 344 842 b 225 654 344 710 292 654 z "},"ƒ":{"ha":913,"x_min":0,"x_max":0,"o":"m 81 361 l 211 361 l 108 -285 l -129 -199 b -171 -292 -149 -214 -171 -250 b -61 -403 -171 -358 -128 -403 b 393 160 97 -403 278 -247 l 450 361 l 589 361 l 608 431 l 471 431 l 608 915 l 765 699 b 888 835 838 713 888 781 b 703 972 888 925 801 972 b 235 511 482 972 283 821 l 222 431 l 99 431 z "},"€":{"ha":950,"x_min":0,"x_max":0,"o":"m 31 397 l 144 397 b 553 -14 169 138 364 -14 b 911 271 735 -14 858 99 b 664 168 835 193 754 168 b 394 397 544 168 438 249 l 615 397 l 635 467 l 381 467 b 375 547 376 492 375 519 b 375 568 375 554 375 561 l 660 568 l 678 638 l 382 638 b 596 893 407 797 497 893 b 890 592 704 893 801 738 l 890 972 l 779 910 b 581 972 728 944 667 972 b 169 638 407 972 235 843 l 31 638 l 31 568 l 151 568 b 142 467 146 536 143 503 l 31 467 z "},"$":{"ha":811,"x_min":0,"x_max":0,"o":"m 432 1125 l 418 965 b 400 965 411 965 406 965 b 74 672 229 965 74 847 b 364 383 74 489 231 438 l 336 72 b 57 379 238 104 140 222 l 57 99 b 329 -6 113 47 217 4 l 314 -175 l 383 -175 l 399 -7 b 757 304 597 3 757 128 b 454 600 757 492 592 547 l 478 871 b 715 610 560 829 636 725 l 715 965 l 603 894 b 486 953 574 918 532 940 l 501 1125 z m 406 889 b 411 889 407 889 408 889 l 386 628 b 269 760 319 658 269 696 b 406 889 269 842 328 889 z m 547 208 b 406 65 547 117 482 71 l 432 354 b 547 208 499 321 547 281 z "},"¢":{"ha":663,"x_min":0,"x_max":0,"o":"m 508 396 b 626 510 574 396 626 447 b 422 653 626 588 538 647 l 436 818 l 369 818 l 356 650 b 32 308 178 628 32 489 b 300 -11 32 138 147 11 l 286 -175 l 353 -175 l 367 -14 b 629 254 501 -4 610 94 b 438 157 585 194 513 157 b 381 164 418 157 399 160 l 417 586 z m 231 386 b 350 594 231 486 285 560 l 317 194 b 231 386 263 235 231 303 z "},"£":{"ha":931,"x_min":0,"x_max":0,"o":"m 119 0 b 281 153 185 0 233 44 l 586 -87 b 903 242 718 -53 903 97 b 786 368 903 313 858 368 b 674 292 735 368 689 338 l 814 165 l 800 151 l 303 204 l 403 454 l 578 454 l 593 524 l 432 524 l 593 924 l 744 694 b 850 835 810 715 850 767 b 642 972 850 899 789 972 b 215 569 411 972 218 846 l 215 524 l 118 524 l 103 454 l 214 454 l 211 200 l 8 176 b 119 0 -17 79 44 0 z "},"¥":{"ha":1013,"x_min":0,"x_max":0,"o":"m 179 300 l 388 300 l 388 78 l 225 78 l 225 0 l 788 0 l 788 78 l 625 78 l 625 300 l 833 300 l 833 369 l 625 369 l 625 469 l 833 469 l 833 539 l 667 539 l 897 881 l 999 881 l 999 958 l 672 958 l 672 881 l 796 881 l 589 565 l 404 881 l 528 881 l 528 958 l 14 958 l 14 881 l 115 881 l 346 539 l 179 539 l 179 469 l 388 469 l 388 369 l 179 369 z "},"฿":{"ha":975,"x_min":0,"x_max":0,"o":"m 19 958 l 19 881 l 149 881 l 149 78 l 19 78 l 19 0 l 467 0 l 467 -175 l 536 -175 l 536 0 b 940 278 792 8 940 125 b 624 517 940 442 756 508 b 888 728 756 538 888 604 b 536 958 888 875 756 951 l 536 1125 l 467 1125 l 467 958 z m 371 881 l 467 881 l 467 533 l 371 533 z m 656 710 b 536 544 656 622 601 567 l 536 872 b 656 710 604 853 656 804 z m 371 78 l 371 465 l 467 465 l 467 78 z m 686 272 b 536 85 686 172 618 107 l 536 458 b 686 272 621 442 686 386 z "},"₫":{"ha":854,"x_min":0,"x_max":0,"o":"m 736 210 l 736 772 l 819 772 l 819 842 l 736 842 l 736 1014 l 514 954 l 514 842 l 263 842 l 263 772 l 514 772 l 514 646 b 396 669 485 660 440 669 b 51 324 214 669 51 525 b 299 42 51 178 144 42 b 500 149 390 42 460 94 l 514 149 l 514 42 l 821 114 z m 514 175 b 469 167 501 169 486 167 b 265 401 356 167 265 247 b 413 611 265 522 324 611 b 514 538 463 611 497 576 z m 121 -139 l 775 -139 l 775 -69 l 121 -69 z "},"₣":{"ha":875,"x_min":0,"x_max":0,"o":"m 56 328 l 185 328 l 185 78 l 56 78 l 56 0 l 583 0 l 583 78 l 421 78 l 421 328 l 654 328 l 674 397 l 421 397 l 421 499 l 699 499 l 717 568 l 421 568 l 421 881 l 636 881 l 847 632 l 847 999 l 772 958 l 56 958 l 56 881 l 185 881 l 185 568 l 56 568 l 56 499 l 185 499 l 185 397 l 56 397 z "},"₦":{"ha":1103,"x_min":0,"x_max":0,"o":"m 61 338 l 190 338 l 190 78 l 61 78 l 61 0 l 442 0 l 442 78 l 285 78 l 285 675 l 913 -42 l 913 338 l 1042 338 l 1042 407 l 913 407 l 913 508 l 1042 508 l 1042 578 l 913 578 l 913 881 l 1042 881 l 1042 958 l 661 958 l 661 881 l 818 881 l 818 399 l 346 958 l 36 958 l 190 782 l 190 578 l 61 578 l 61 508 l 190 508 l 190 407 l 61 407 z "},"₧":{"ha":1065,"x_min":0,"x_max":0,"o":"m 56 635 l 185 635 l 185 78 l 56 78 l 56 0 l 589 0 l 589 78 l 407 78 l 407 635 l 690 635 b 465 436 674 521 578 450 l 583 383 b 910 635 722 388 889 464 l 1029 635 l 1029 704 l 910 704 b 490 958 889 883 717 958 l 56 958 l 56 881 l 185 881 l 185 704 l 56 704 z m 407 881 l 464 881 b 690 704 579 881 676 826 l 407 704 z "},"₱":{"ha":1065,"x_min":0,"x_max":0,"o":"m 56 539 l 185 539 l 185 78 l 56 78 l 56 0 l 589 0 l 589 78 l 407 78 l 407 539 l 651 539 b 465 436 611 482 542 446 l 583 383 b 878 539 693 386 819 435 l 1024 539 l 1024 608 l 904 608 b 911 669 908 628 911 647 b 908 710 911 683 910 697 l 1024 710 l 1024 779 l 890 779 b 490 958 836 904 682 958 l 56 958 l 56 881 l 185 881 l 185 779 l 56 779 l 56 710 l 185 710 l 185 608 l 56 608 z m 407 881 l 464 881 b 668 779 553 881 629 849 l 407 779 z m 693 669 b 685 608 693 647 690 628 l 407 608 l 407 710 l 690 710 b 693 669 692 697 693 683 z "},"₽":{"ha":939,"x_min":0,"x_max":0,"o":"m 56 269 l 185 269 l 185 78 l 56 78 l 56 0 l 589 0 l 589 78 l 407 78 l 407 269 l 685 269 l 685 339 l 407 339 l 407 440 l 503 440 b 896 703 718 440 896 519 b 503 958 896 886 719 958 l 56 958 l 56 881 l 185 881 l 185 510 l 56 510 l 56 440 l 185 440 l 185 339 l 56 339 z m 407 881 l 457 881 b 660 697 560 881 660 838 b 457 510 660 557 560 510 l 407 510 z "},"₹":{"ha":857,"x_min":0,"x_max":0,"o":"m 125 496 l 125 426 l 207 426 l 538 0 l 836 0 l 465 458 b 679 690 586 497 679 572 b 676 718 679 700 678 710 l 824 718 l 843 788 l 649 788 b 517 889 619 831 572 865 l 824 889 l 842 958 l 56 958 l 56 889 l 207 889 b 400 788 282 889 363 858 l 56 788 l 56 718 l 422 718 b 424 690 424 710 424 700 b 207 496 424 550 310 496 z "},"₺":{"ha":943,"x_min":0,"x_max":0,"o":"m 56 233 l 185 308 l 185 78 l 56 78 l 56 0 l 442 0 b 904 401 735 0 904 154 l 664 401 b 419 78 664 160 579 78 l 407 78 l 407 429 l 624 557 l 624 629 l 407 501 l 407 596 l 624 724 l 624 796 l 407 668 l 407 881 l 536 881 l 536 958 l 56 958 l 56 881 l 185 881 l 185 547 l 56 472 l 56 400 l 185 475 l 185 381 l 56 306 z "},"₩":{"ha":1313,"x_min":0,"x_max":0,"o":"m 56 592 l 211 592 l 450 -42 l 667 549 l 875 -42 l 1106 592 l 1258 592 l 1258 661 l 1131 661 l 1210 881 l 1299 881 l 1299 958 l 993 958 l 993 881 l 1132 881 l 1054 661 l 844 661 l 772 881 l 897 881 l 897 958 l 479 958 l 479 881 l 550 881 l 628 661 l 414 661 l 335 881 l 417 881 l 417 958 l 14 958 l 14 881 l 103 881 l 185 661 l 56 661 z m 525 353 l 439 592 l 611 592 z m 946 357 l 868 592 l 1029 592 z "},"⁰":{"ha":603,"x_min":0,"x_max":0,"o":"m 564 688 b 301 967 564 846 436 967 b 39 688 167 967 39 846 b 301 408 39 529 167 408 b 564 688 436 408 564 529 z m 392 688 b 301 453 392 538 346 453 b 211 688 256 453 211 538 b 301 921 211 836 256 921 b 392 688 346 921 392 836 z "},"¹":{"ha":454,"x_min":0,"x_max":0,"o":"m 165 786 l 165 474 l 65 474 l 65 415 l 421 415 l 421 474 l 329 474 l 329 967 l 6 786 z "},"²":{"ha":469,"x_min":0,"x_max":0,"o":"m 394 415 l 463 553 l 196 553 l 196 565 b 404 817 300 631 404 717 b 246 967 404 899 344 967 b 35 789 157 967 76 913 b 156 838 79 825 115 838 b 254 736 218 838 254 801 b 7 415 254 649 206 611 z "},"³":{"ha":475,"x_min":0,"x_max":0,"o":"m 193 443 l 100 554 b 32 482 58 544 32 517 b 149 408 32 440 78 408 b 439 596 288 408 439 490 b 251 726 439 679 351 719 l 251 736 b 401 863 335 754 401 797 b 272 967 401 915 360 967 b 53 815 158 967 90 893 b 153 856 81 840 113 856 b 231 788 196 856 231 829 b 108 654 231 738 197 696 b 293 543 224 654 293 614 b 193 443 293 489 242 449 z "},"⁴":{"ha":569,"x_min":0,"x_max":0,"o":"m 479 415 l 479 474 l 410 474 l 410 571 l 501 571 l 556 628 l 410 628 l 410 967 l 0 571 l 254 571 l 254 474 l 185 474 l 185 415 z m 254 628 l 117 628 l 254 757 z "},"⁵":{"ha":469,"x_min":0,"x_max":0,"o":"m 161 772 l 176 815 l 394 815 l 436 958 l 190 958 l 82 646 b 290 546 197 660 290 629 b 199 444 290 483 239 454 l 104 550 b 35 479 61 540 35 514 b 150 408 35 440 81 408 b 426 621 285 408 426 493 b 161 772 426 749 303 781 z "},"⁶":{"ha":497,"x_min":0,"x_max":0,"o":"m 265 408 b 469 604 372 408 469 500 b 311 761 469 697 400 761 b 213 719 267 761 233 742 l 203 719 b 447 967 233 811 313 889 b 32 639 232 963 32 815 b 265 408 32 518 129 408 z m 188 624 b 197 699 188 650 190 675 b 219 701 203 700 211 701 b 335 543 288 701 335 626 b 279 450 335 481 314 450 b 188 624 228 450 188 518 z "},"⁷":{"ha":482,"x_min":0,"x_max":0,"o":"m 194 417 l 472 958 l 97 958 l 8 801 l 342 801 l 99 417 z "},"⁸":{"ha":490,"x_min":0,"x_max":0,"o":"m 458 578 b 329 733 458 654 396 699 l 329 749 b 428 840 390 761 428 797 b 246 967 428 911 350 967 b 49 803 132 967 49 882 b 143 671 49 740 92 701 l 143 656 b 32 536 72 624 32 588 b 235 408 32 467 121 408 b 458 578 356 408 458 496 z m 175 857 b 247 926 175 897 204 926 b 331 838 300 926 331 892 b 299 750 331 801 326 775 b 175 857 235 782 175 811 z m 139 558 b 174 654 139 596 149 626 b 324 525 246 615 324 585 b 235 451 324 485 289 451 b 139 558 175 451 139 493 z "},"⁹":{"ha":497,"x_min":0,"x_max":0,"o":"m 233 967 b 29 771 126 967 29 875 b 192 610 29 678 101 610 b 288 656 236 610 268 629 l 296 656 b 50 408 264 565 186 486 b 467 736 267 413 467 551 b 233 967 467 858 369 967 z m 163 832 b 219 925 163 896 185 925 b 311 753 271 925 311 858 b 301 675 311 726 308 700 b 282 674 296 674 289 674 b 163 832 213 674 163 749 z "},"₀":{"ha":603,"x_min":0,"x_max":0,"o":"m 564 63 b 301 342 564 221 436 342 b 39 63 167 342 39 221 b 301 -217 39 -96 167 -217 b 564 63 436 -217 564 -96 z m 392 63 b 301 -172 392 -87 346 -172 b 211 63 256 -172 211 -87 b 301 296 211 211 256 296 b 392 63 346 296 392 211 z "},"₁":{"ha":454,"x_min":0,"x_max":0,"o":"m 165 161 l 165 -151 l 65 -151 l 65 -210 l 421 -210 l 421 -151 l 329 -151 l 329 342 l 6 161 z "},"₂":{"ha":469,"x_min":0,"x_max":0,"o":"m 394 -210 l 463 -72 l 196 -72 l 196 -60 b 404 192 300 6 404 92 b 246 342 404 274 344 342 b 35 164 157 342 76 288 b 156 213 79 200 115 213 b 254 111 218 213 254 176 b 7 -210 254 24 206 -14 z "},"₃":{"ha":475,"x_min":0,"x_max":0,"o":"m 193 -182 l 100 -71 b 32 -143 58 -81 32 -108 b 149 -217 32 -185 78 -217 b 439 -29 288 -217 439 -135 b 251 101 439 54 351 94 l 251 111 b 401 238 335 129 401 172 b 272 342 401 290 360 342 b 53 190 158 342 90 268 b 153 231 81 215 113 231 b 231 163 196 231 231 204 b 108 29 231 113 197 71 b 293 -82 224 29 293 -11 b 193 -182 293 -136 242 -176 z "},"₄":{"ha":569,"x_min":0,"x_max":0,"o":"m 479 -210 l 479 -151 l 410 -151 l 410 -54 l 501 -54 l 556 3 l 410 3 l 410 342 l 0 -54 l 254 -54 l 254 -151 l 185 -151 l 185 -210 z m 254 3 l 117 3 l 254 132 z "},"₅":{"ha":469,"x_min":0,"x_max":0,"o":"m 161 147 l 176 190 l 394 190 l 436 333 l 190 333 l 82 21 b 290 -79 197 35 290 4 b 199 -181 290 -142 239 -171 l 104 -75 b 35 -146 61 -85 35 -111 b 150 -217 35 -185 81 -217 b 426 -4 285 -217 426 -132 b 161 147 426 124 303 156 z "},"₆":{"ha":497,"x_min":0,"x_max":0,"o":"m 265 -217 b 469 -21 372 -217 469 -125 b 311 136 469 72 400 136 b 213 94 267 136 233 117 l 203 94 b 447 342 233 186 313 264 b 32 14 232 338 32 190 b 265 -217 32 -107 129 -217 z m 188 -1 b 197 74 188 25 190 50 b 219 76 203 75 211 76 b 335 -82 288 76 335 1 b 279 -175 335 -144 314 -175 b 188 -1 228 -175 188 -107 z "},"₇":{"ha":482,"x_min":0,"x_max":0,"o":"m 194 -208 l 472 333 l 97 333 l 8 176 l 342 176 l 99 -208 z "},"₈":{"ha":490,"x_min":0,"x_max":0,"o":"m 458 -47 b 329 108 458 29 396 74 l 329 124 b 428 215 390 136 428 172 b 246 342 428 286 350 342 b 49 178 132 342 49 257 b 143 46 49 115 92 76 l 143 31 b 32 -89 72 -1 32 -37 b 235 -217 32 -158 121 -217 b 458 -47 356 -217 458 -129 z m 175 232 b 247 301 175 272 204 301 b 331 213 300 301 331 267 b 299 125 331 176 326 150 b 175 232 235 157 175 186 z m 139 -67 b 174 29 139 -29 149 1 b 324 -100 246 -10 324 -40 b 235 -174 324 -140 289 -174 b 139 -67 175 -174 139 -132 z "},"₉":{"ha":497,"x_min":0,"x_max":0,"o":"m 233 342 b 29 146 126 342 29 250 b 192 -15 29 53 101 -15 b 288 31 236 -15 268 4 l 296 31 b 50 -217 264 -60 186 -139 b 467 111 267 -212 467 -74 b 233 342 467 233 369 342 z m 163 207 b 219 300 163 271 185 300 b 311 128 271 300 311 233 b 301 50 311 101 308 75 b 282 49 296 49 289 49 b 163 207 213 49 163 124 z "},"⁄":{"ha":235,"x_min":0,"x_max":0,"o":"m 517 958 l 408 958 l 374 893 l -282 0 l -174 0 l -139 65 z "},"½":{"ha":1128,"x_min":0,"x_max":0,"o":"m 165 786 l 165 474 l 65 474 l 65 415 l 421 415 l 421 474 l 329 474 l 329 967 l 6 786 z m 992 958 l 883 958 l 849 893 l 193 0 l 301 0 l 336 65 z m 1053 0 l 1121 138 l 854 138 l 854 150 b 1063 401 958 215 1063 301 b 904 551 1063 483 1003 551 b 693 374 815 551 735 497 b 814 422 738 410 774 422 b 913 321 876 422 913 386 b 665 0 913 233 864 196 z "},"¼":{"ha":1111,"x_min":0,"x_max":0,"o":"m 992 958 l 883 958 l 849 893 l 193 0 l 301 0 l 336 65 z m 165 786 l 165 474 l 65 474 l 65 415 l 421 415 l 421 474 l 329 474 l 329 967 l 6 786 z m 1021 0 l 1021 58 l 951 58 l 951 156 l 1043 156 l 1097 213 l 951 213 l 951 551 l 542 156 l 796 156 l 796 58 l 726 58 l 726 0 z m 796 213 l 658 213 l 796 342 z "},"¾":{"ha":1054,"x_min":0,"x_max":0,"o":"m 964 0 l 964 58 l 894 58 l 894 156 l 986 156 l 1040 213 l 894 213 l 894 551 l 485 156 l 739 156 l 739 58 l 669 58 l 669 0 z m 739 213 l 601 213 l 739 342 z m 935 958 l 826 958 l 792 893 l 136 0 l 244 0 l 279 65 z m 193 443 l 100 554 b 32 482 58 544 32 517 b 149 408 32 440 78 408 b 439 596 288 408 439 490 b 251 726 439 679 351 719 l 251 736 b 401 863 335 754 401 797 b 272 967 401 915 360 967 b 53 815 158 967 90 893 b 153 856 81 840 113 856 b 231 788 196 856 231 829 b 108 654 231 738 197 696 b 293 543 224 654 293 614 b 193 443 293 489 242 449 z "},"⅓":{"ha":1132,"x_min":0,"x_max":0,"o":"m 992 958 l 883 958 l 849 893 l 193 0 l 301 0 l 336 65 z m 165 786 l 165 474 l 65 474 l 65 415 l 421 415 l 421 474 l 329 474 l 329 967 l 6 786 z m 850 28 l 757 139 b 689 67 715 129 689 101 b 806 -7 689 25 735 -7 b 1096 181 944 -7 1096 75 b 908 311 1096 264 1008 304 l 908 321 b 1058 447 992 339 1058 382 b 929 551 1058 500 1017 551 b 710 400 815 551 747 478 b 810 440 738 425 769 440 b 888 372 853 440 888 414 b 765 239 888 322 854 281 b 950 128 881 239 950 199 b 850 28 950 74 899 33 z "},"⅔":{"ha":1131,"x_min":0,"x_max":0,"o":"m 990 958 l 882 958 l 847 893 l 192 0 l 300 0 l 335 65 z m 849 28 l 756 139 b 688 67 714 129 688 101 b 804 -7 688 25 733 -7 b 1094 181 943 -7 1094 75 b 907 311 1094 264 1007 304 l 907 321 b 1057 447 990 339 1057 382 b 928 551 1057 500 1015 551 b 708 400 814 551 746 478 b 808 440 736 425 768 440 b 886 372 851 440 886 414 b 764 239 886 322 853 281 b 949 128 879 239 949 199 b 849 28 949 74 897 33 z m 394 415 l 463 553 l 196 553 l 196 565 b 404 817 300 631 404 717 b 246 967 404 899 344 967 b 35 789 157 967 76 913 b 156 838 79 825 115 838 b 254 736 218 838 254 801 b 7 415 254 649 206 611 z "},"⅛":{"ha":1147,"x_min":0,"x_max":0,"o":"m 1115 163 b 986 318 1115 239 1053 283 l 986 333 b 1085 425 1047 346 1085 382 b 903 551 1085 496 1007 551 b 706 388 789 551 706 467 b 800 256 706 325 749 286 l 800 240 b 689 121 729 208 689 172 b 892 -7 689 51 778 -7 b 1115 163 1013 -7 1115 81 z m 832 442 b 904 511 832 482 861 511 b 988 422 957 511 988 476 b 956 335 988 386 983 360 b 832 442 892 367 832 396 z m 796 143 b 831 239 796 181 806 211 b 981 110 903 200 981 169 b 892 36 981 69 946 36 b 796 143 832 36 796 78 z m 992 958 l 883 958 l 849 893 l 193 0 l 301 0 l 336 65 z m 165 786 l 165 474 l 65 474 l 65 415 l 421 415 l 421 474 l 329 474 l 329 967 l 6 786 z "},"⅜":{"ha":1090,"x_min":0,"x_max":0,"o":"m 1058 163 b 929 318 1058 239 996 283 l 929 333 b 1028 425 990 346 1028 382 b 846 551 1028 496 950 551 b 649 388 732 551 649 467 b 743 256 649 325 692 286 l 743 240 b 632 121 672 208 632 172 b 835 -7 632 51 721 -7 b 1058 163 956 -7 1058 81 z m 775 442 b 847 511 775 482 804 511 b 931 422 900 511 931 476 b 899 335 931 386 926 360 b 775 442 835 367 775 396 z m 739 143 b 774 239 739 181 749 211 b 924 110 846 200 924 169 b 835 36 924 69 889 36 b 739 143 775 36 739 78 z m 935 958 l 826 958 l 792 893 l 136 0 l 244 0 l 279 65 z m 193 443 l 100 554 b 32 482 58 544 32 517 b 149 408 32 440 78 408 b 439 596 288 408 439 490 b 251 726 439 679 351 719 l 251 736 b 401 863 335 754 401 797 b 272 967 401 915 360 967 b 53 815 158 967 90 893 b 153 856 81 840 113 856 b 231 788 196 856 231 829 b 108 654 231 738 197 696 b 293 543 224 654 293 614 b 193 443 293 489 242 449 z "},"⅝":{"ha":1071,"x_min":0,"x_max":0,"o":"m 915 958 l 807 958 l 772 893 l 117 0 l 225 0 l 260 65 z m 1039 163 b 910 318 1039 239 976 283 l 910 333 b 1008 425 971 346 1008 382 b 826 551 1008 496 931 551 b 629 388 713 551 629 467 b 724 256 629 325 672 286 l 724 240 b 613 121 653 208 613 172 b 815 -7 613 51 701 -7 b 1039 163 936 -7 1039 81 z m 756 442 b 828 511 756 482 785 511 b 911 422 881 511 911 476 b 879 335 911 386 907 360 b 756 442 815 367 756 396 z m 719 143 b 754 239 719 181 729 211 b 904 110 826 200 904 169 b 815 36 904 69 869 36 b 719 143 756 36 719 78 z m 161 772 l 176 815 l 394 815 l 436 958 l 190 958 l 82 646 b 290 546 197 660 290 629 b 199 444 290 483 239 454 l 104 550 b 35 479 61 540 35 514 b 150 408 35 440 81 408 b 426 621 285 408 426 493 b 161 772 426 749 303 781 z "},"⅞":{"ha":994,"x_min":0,"x_max":0,"o":"m 963 163 b 833 318 963 239 900 283 l 833 333 b 932 425 894 346 932 382 b 750 551 932 496 854 551 b 553 388 636 551 553 467 b 647 256 553 325 596 286 l 647 240 b 536 121 576 208 536 172 b 739 -7 536 51 625 -7 b 963 163 860 -7 963 81 z m 679 442 b 751 511 679 482 708 511 b 835 422 804 511 835 476 b 803 335 835 386 831 360 b 679 442 739 367 679 396 z m 643 143 b 678 239 643 181 653 211 b 828 110 750 200 828 169 b 739 36 828 69 793 36 b 643 143 679 36 643 78 z m 839 958 l 731 958 l 696 893 l 40 0 l 149 0 l 183 65 z m 194 417 l 472 958 l 97 958 l 8 801 l 342 801 l 99 417 z "},"%":{"ha":989,"x_min":0,"x_max":0,"o":"m 264 553 b 469 763 375 553 469 646 b 264 972 469 878 375 972 b 56 763 150 972 56 878 b 264 553 56 646 150 553 z m 901 958 l 788 958 l 753 893 l 88 0 l 201 0 l 236 65 z m 264 639 b 146 763 196 639 146 693 b 264 886 146 831 196 886 b 379 763 329 886 379 831 b 264 639 379 693 329 639 z m 725 406 b 519 196 614 406 519 313 b 725 -14 519 81 614 -14 b 933 196 839 -14 933 81 b 725 406 933 313 839 406 z m 725 319 b 843 196 793 319 843 265 b 725 72 843 128 793 72 b 610 196 660 72 610 128 b 725 319 610 265 660 319 z "},"+":{"ha":833,"x_min":0,"x_max":0,"o":"m 61 425 l 371 425 l 371 115 l 463 115 l 463 425 l 772 425 l 772 518 l 463 518 l 463 828 l 371 828 l 371 518 l 61 518 z "},"−":{"ha":833,"x_min":0,"x_max":0,"o":"m 61 425 l 772 425 l 772 518 l 61 518 z "},"×":{"ha":833,"x_min":0,"x_max":0,"o":"m 107 203 l 171 139 l 417 385 l 663 139 l 726 203 l 481 449 l 726 694 l 663 758 l 417 513 l 171 758 l 107 694 l 353 449 z "},"÷":{"ha":833,"x_min":0,"x_max":0,"o":"m 419 650 b 517 750 474 650 517 694 b 419 849 517 804 474 849 b 321 750 364 849 321 804 b 419 650 321 694 364 650 z m 61 425 l 772 425 l 772 518 l 61 518 z m 419 94 b 517 194 474 94 517 139 b 419 293 517 249 474 293 b 321 194 364 293 321 249 b 419 94 321 139 364 94 z "},"=":{"ha":833,"x_min":0,"x_max":0,"o":"m 61 569 l 772 569 l 772 663 l 61 663 z m 61 278 l 772 278 l 772 371 l 61 371 z "},"<":{"ha":832,"x_min":0,"x_max":0,"o":"m 106 433 l 726 122 l 726 229 l 229 468 l 726 710 l 726 815 l 106 507 z "},">":{"ha":832,"x_min":0,"x_max":0,"o":"m 726 433 l 726 507 l 106 815 l 106 710 l 603 468 l 106 229 l 106 122 z "},"↑":{"ha":925,"x_min":0,"x_max":0,"o":"m 501 663 l 842 536 l 463 1025 l 83 536 l 424 663 l 424 -28 l 501 -28 z "},"↓":{"ha":925,"x_min":0,"x_max":0,"o":"m 501 321 l 842 447 l 463 -42 l 83 447 l 424 321 l 424 1011 l 501 1011 z "},"←":{"ha":1219,"x_min":0,"x_max":0,"o":"m 446 360 l 572 19 l 83 399 l 572 778 l 446 438 l 1136 438 l 1136 360 z "},"→":{"ha":1219,"x_min":0,"x_max":0,"o":"m 774 360 l 647 19 l 1136 399 l 647 778 l 774 438 l 83 438 l 83 360 z "},"↕":{"ha":925,"x_min":0,"x_max":0,"o":"m 501 182 l 501 721 l 842 594 l 463 1083 l 83 594 l 424 721 l 424 182 l 83 308 l 463 -181 l 842 308 z "},"↔":{"ha":1611,"x_min":0,"x_max":0,"o":"m 446 360 l 1165 360 l 1039 19 l 1528 399 l 1039 778 l 1165 438 l 446 438 l 572 778 l 83 399 l 572 19 z "},"↖":{"ha":1153,"x_min":0,"x_max":0,"o":"m 306 696 l 1015 -14 l 1069 40 l 360 750 l 681 906 l 83 972 l 150 375 z "},"↗":{"ha":1153,"x_min":0,"x_max":0,"o":"m 847 696 l 138 -14 l 83 40 l 793 750 l 472 906 l 1069 972 l 1003 375 z "},"↘":{"ha":1153,"x_min":0,"x_max":0,"o":"m 847 263 l 138 972 l 83 918 l 793 208 l 472 53 l 1069 -14 l 1003 583 z "},"↙":{"ha":1153,"x_min":0,"x_max":0,"o":"m 306 263 l 1015 972 l 1069 918 l 360 208 l 681 53 l 83 -14 l 150 583 z "},"́":{"ha":0,"x_min":0,"x_max":0,"o":"m 149 1007 l -115 1007 l -149 683 z "},"̆":{"ha":0,"x_min":0,"x_max":0,"o":"m 0 871 b -182 1067 -68 871 -131 918 b 0 711 -210 883 -125 711 b 182 1067 125 711 210 883 b 0 871 131 918 68 871 z "},"̌":{"ha":0,"x_min":0,"x_max":0,"o":"m 0 864 l -228 1049 l -89 725 l 89 725 l 228 1049 z "},"̧":{"ha":0,"x_min":0,"x_max":0,"o":"m -65 -371 b 164 -200 36 -371 164 -292 b 19 -61 164 -128 99 -85 l 25 25 l -92 -154 b 42 -256 -29 -169 42 -200 b -14 -332 42 -292 18 -322 l -87 -225 b -164 -296 -128 -225 -164 -254 b -65 -371 -164 -336 -124 -371 z "},"̂":{"ha":0,"x_min":0,"x_max":0,"o":"m 0 854 l 228 669 l 89 993 l -89 993 l -228 669 z "},"̦":{"ha":0,"x_min":0,"x_max":0,"o":"m -126 -165 b -86 -244 -126 -199 -110 -228 l 18 -244 b -136 -414 8 -308 -37 -369 b 138 -206 32 -414 138 -311 b 0 -57 138 -122 86 -57 b -126 -165 -74 -57 -126 -108 z "},"̒":{"ha":0,"x_min":0,"x_max":0,"o":"m 128 835 b 88 914 128 868 111 897 l -17 914 b 138 1083 -7 978 39 1039 b -136 875 -31 1083 -136 981 b 1 726 -136 792 -85 726 b 128 835 75 726 128 778 z "},"̈":{"ha":0,"x_min":0,"x_max":0,"o":"m 139 742 b 253 854 204 742 253 790 b 139 969 253 918 204 969 b 25 854 74 969 25 918 b 139 742 25 790 74 742 z m -139 742 b -25 854 -74 742 -25 790 b -139 969 -25 918 -74 969 b -253 854 -204 969 -253 918 b -139 742 -253 790 -204 742 z "},"̇":{"ha":0,"x_min":0,"x_max":0,"o":"m 0 742 b 128 871 71 742 128 800 b 0 1000 128 942 71 1000 b -128 871 -71 1000 -128 942 b 0 742 -128 800 -71 742 z "},"̀":{"ha":0,"x_min":0,"x_max":0,"o":"m -149 1007 l 149 683 l 115 1007 z "},"̋":{"ha":0,"x_min":0,"x_max":0,"o":"m 17 1007 l -192 1007 l -253 683 z m 253 1007 l 44 1007 l -17 683 z "},"̄":{"ha":0,"x_min":0,"x_max":0,"o":"m -164 893 l -237 782 l 164 782 l 238 893 z "},"̨":{"ha":0,"x_min":0,"x_max":0,"o":"m 106 38 b -147 -261 -19 -37 -147 -161 b -35 -375 -147 -336 -96 -375 b 147 -261 39 -375 103 -324 l 92 -261 b 1 -181 36 -261 1 -232 b 115 19 1 -119 39 -46 z "},"̊":{"ha":0,"x_min":0,"x_max":0,"o":"m 0 1021 b -153 868 -83 1021 -153 951 b 0 715 -153 785 -83 715 b 153 868 83 715 153 785 b 0 1021 153 951 83 1021 z m 0 953 b 85 868 47 953 85 915 b 0 783 85 821 47 783 b -85 868 -47 783 -85 821 b 0 953 -85 915 -47 953 z "},"̃":{"ha":0,"x_min":0,"x_max":0,"o":"m 147 774 l 264 1036 b 88 925 185 971 132 925 l -147 967 l -264 704 b -87 815 -185 769 -132 815 z "}}}
